<?xml version="1.0" encoding="UTF-8" standalone="no"?>
<!-- Created with matplotlib (http://matplotlib.org/) -->

<svg
   xmlns:dc="http://purl.org/dc/elements/1.1/"
   xmlns:cc="http://creativecommons.org/ns#"
   xmlns:rdf="http://www.w3.org/1999/02/22-rdf-syntax-ns#"
   xmlns:svg="http://www.w3.org/2000/svg"
   xmlns="http://www.w3.org/2000/svg"
   xmlns:sodipodi="http://sodipodi.sourceforge.net/DTD/sodipodi-0.dtd"
   xmlns:inkscape="http://www.inkscape.org/namespaces/inkscape"
   height="1079.9987"
   version="1.1"
   viewBox="0 0 1536.08 863.99892"
   width="1920.1"
   id="svg2"
   inkscape:version="0.48.4 r9939"
   sodipodi:docname="audio.svg">
  <metadata
     id="metadata446">
    <rdf:RDF>
      <cc:Work
         rdf:about="">
        <dc:format>image/svg+xml</dc:format>
        <dc:type
           rdf:resource="http://purl.org/dc/dcmitype/StillImage" />
      </cc:Work>
    </rdf:RDF>
  </metadata>
  <sodipodi:namedview
     pagecolor="#ffffff"
     bordercolor="#666666"
     borderopacity="1"
     objecttolerance="10"
     gridtolerance="10"
     guidetolerance="10"
     inkscape:pageopacity="0"
     inkscape:pageshadow="2"
     inkscape:window-width="1920"
     inkscape:window-height="1053"
     id="namedview444"
     showgrid="false"
     inkscape:zoom="0.62777778"
     inkscape:cx="1242.76"
     inkscape:cy="551.55987"
     inkscape:window-x="-9"
     inkscape:window-y="-9"
     inkscape:window-maximized="1"
     inkscape:current-layer="svg2"
     fit-margin-top="0"
     fit-margin-left="0"
     fit-margin-right="0"
     fit-margin-bottom="0" />
  <defs
     id="defs4"
     style="stroke-linecap:butt;stroke-linejoin:round">
    <style
       type="text/css"
       id="style6">
*{stroke-linecap:butt;stroke-linejoin:round;}
  </style>
  </defs>
  <g
     id="g4076"
     transform="matrix(1.3489177,0,0,1.3439438,-291.36622,-191.21402)"
     style="stroke-linecap:butt;stroke-linejoin:round">
    <g
       style="stroke-linecap:butt;stroke-linejoin:round"
       id="line2d_1">
      <path
         inkscape:connector-curvature="0"
         id="path17"
         style="opacity:0.87999998;fill:none;stroke:#002ee8;stroke-width:0.7427057;stroke-linecap:square;stroke-linejoin:round"
         d="m 216,516.138 17.856,-1.631 13.392,-1.165 26.784,-2.365 31.248,-2.246 13.392,-0.677 8.928,-0.208 4.464,-0.048 8.928,0.222 8.928,0.568 4.464,0.404 8.928,1.111 8.928,1.513 8.928,1.938 4.464,1.014 4.464,1.178 4.464,0.976 4.464,1.168 4.464,0.986 13.392,3.515 8.928,2.904 8.928,3.352 8.928,3.066 8.928,2.2 8.928,1.429 13.392,1.292 4.464,0.36 8.928,0.433 4.464,-0.045 4.464,-0.235 4.464,-0.461 4.464,-1.012 4.464,-1.247 4.464,-1.758 4.464,-2.264 4.464,-2.551 4.464,-2.847 8.928,-6.238 4.464,-3.233 4.464,-3.482 4.464,-3.635 4.464,-3.961 4.464,-4.365 4.464,-4.674 4.464,-4.881 8.928,-10.165 8.928,-9.735 8.928,-9.558 8.928,-10.396 4.464,-5.672 8.928,-10.987 4.464,-4.747 4.464,-4.516 8.928,-6.216 4.464,-1.811 4.464,-1.587 4.464,-1.354 4.464,-0.578 4.464,-0.912 4.464,-0.387 8.928,-0.082 8.928,1.421 4.464,1.581 4.464,1.729 4.464,2.835 4.464,3.139 4.464,4.268 4.464,4.826 4.464,5.486 8.928,12.078 8.928,12.452 8.928,12.537 4.464,6.77 4.464,7.166 4.464,8.014 4.464,8.556 4.464,9.298 4.464,9.579 4.464,9.904 8.928,18.975 4.464,8.901 4.464,8.179 4.464,7.805 4.464,7.069 4.464,6.735 4.464,6.496 4.464,6.051 4.464,6.359 4.464,5.603 4.464,6.203 4.464,5.189 4.464,5.528 4.464,4.363 4.464,4.198 4.464,2.992 4.464,2.436 4.464,1.246 4.464,0.508 4.464,-0.414 4.464,-1.422 4.464,-1.979 4.464,-3.437 4.464,-3.82 4.464,-5.188 4.464,-5.96 4.464,-6.668 4.464,-7.585 4.464,-7.924 8.928,-17.26 8.928,-18.281 13.392,-29.066 13.392,-29.484 8.928,-18.9 4.464,-9.144 8.928,-17.249 4.464,-7.908 4.464,-7.683 4.464,-7.185 4.464,-6.62 4.464,-6.287 4.464,-5.41 4.46,-5.205 4.47,-4.254 4.46,-3.894 4.47,-3.129 4.46,-2.593 4.46,-2.075 4.47,-1.478 4.46,-1.096 4.47,-0.539 4.46,-0.317 4.46,0.203 4.47,0.339 8.93,1.643 4.46,1.131 8.93,2.559 8.93,3.156 4.46,1.707 8.93,3.982 4.46,2.249 8.93,4.811 13.39,7.75 8.93,5.358 8.93,5.583 4.46,3.073 4.47,2.85 17.85,12.617 13.39,9.663 4.47,3.09 8.93,5.795 8.92,5.345 22.32,12.735 4.47,2.376 4.46,2.214 4.47,2.051 4.46,1.811 4.46,1.687 8.93,2.807 8.93,2.351 8.93,2.011 8.93,1.689 8.92,1.37 8.93,1.04 8.93,0.778 13.39,0.989 31.25,2.147 0,0"
         clip-path="url(#pf7a96be8cb)" />
    </g>
    <g
       style="stroke-linecap:butt;stroke-linejoin:round"
       id="line2d_2">
      <path
         inkscape:connector-curvature="0"
         id="path20"
         style="opacity:0.7744;fill:none;stroke:#004fd8;stroke-width:0.7427057;stroke-linecap:square;stroke-linejoin:round"
         d="m 216,520.1 13.392,1.143 8.928,1.024 22.32,3.042 13.392,2.01 22.32,3.675 4.464,0.58 8.928,0.731 8.928,0.121 4.464,-0.184 4.464,-0.295 8.928,-1.167 8.928,-2.043 8.928,-2.97 4.464,-1.89 4.464,-2.048 4.464,-2.285 4.464,-2.523 4.464,-2.669 8.928,-5.95 8.928,-6.554 13.392,-10.459 4.464,-3.573 8.928,-6.811 4.464,-3.208 4.464,-2.944 4.464,-2.78 4.464,-2.535 4.464,-2.22 4.464,-2.08 4.464,-1.624 4.464,-1.479 4.464,-0.871 4.464,-0.697 4.464,0.172 4.464,0.501 4.464,1.418 4.464,1.939 4.464,2.799 4.464,3.339 4.464,4.2 4.464,4.748 4.464,5.625 4.464,6.342 4.464,7.116 4.464,8.007 4.464,8.75 4.464,9.701 4.464,10.211 8.928,22.563 8.928,24.506 8.928,25.692 17.856,51.448 8.928,23.861 4.464,10.993 4.464,10.523 4.464,9.824 4.464,8.766 4.464,8.268 4.464,7.126 4.464,6.064 4.464,5.336 4.464,3.48 4.464,2.933 4.464,0.853 4.464,0.112 4.464,-1.575 4.464,-2.726 4.464,-3.768 4.464,-5.01 4.464,-6.004 4.464,-6.966 4.464,-8.125 4.464,-9.115 4.464,-10.16 4.464,-11.263 4.464,-12.042 4.464,-12.964 4.464,-13.457 8.928,-28.514 8.928,-29.818 8.928,-30.549 13.392,-45.967 4.464,-14.975 8.928,-28.558 8.928,-26.433 4.464,-11.838 4.464,-12.355 8.928,-22.009 4.464,-10.342 8.928,-18.81 8.928,-16.241 4.464,-6.972 4.464,-6.708 4.464,-6.034 4.464,-5.459 4.464,-5.134 4.464,-4.305 4.464,-4.127 8.928,-6.323 8.928,-3.88 4.464,-0.967 4.464,-0.505 4.464,0.048 4.464,0.838 4.464,1.085 4.464,1.953 4.464,2.089 4.464,2.744 8.928,6.324 4.464,4.075 4.464,3.804 8.928,9.348 8.928,10.276 8.928,10.646 4.464,5.547 4.464,5.327 4.464,5.831 4.464,5.599 4.464,6.283 4.464,5.913 4.464,6.481 13.392,18.01 8.928,11.344 4.464,5.475 13.388,17.272 8.93,11.627 4.47,5.625 4.46,5.27 4.46,5.09 8.93,8.959 8.93,8.036 8.93,7.292 4.46,3.055 4.47,3.341 8.92,5.182 4.47,2.049 4.46,1.85 4.47,1.478 4.46,1.199 4.46,0.838 4.47,0.641 4.46,0.385 4.47,0.166 4.46,0.008 4.46,-0.14 4.47,-0.299 8.93,-0.887 4.46,-0.71 4.46,-0.573 4.47,-0.874 4.46,-0.642 4.47,-0.867 13.39,-2.289 13.39,-2.199 13.39,-1.868 13.39,-1.525 8.93,-0.77 4.47,-0.28 8.92,-0.331 35.72,-0.266 31.24,0.572 62.5,-0.289 0,0"
         clip-path="url(#pf7a96be8cb)" />
    </g>
    <g
       style="stroke-linecap:butt;stroke-linejoin:round"
       id="line2d_3">
      <path
         inkscape:connector-curvature="0"
         id="path23"
         style="opacity:0.681472;fill:none;stroke:#000afa;stroke-width:0.7427057;stroke-linecap:square;stroke-linejoin:round"
         d="m 216,511.915 13.392,0.085 26.784,0.926 8.928,0.464 4.464,0.272 8.928,0.841 8.928,1.15 17.856,2.962 13.392,2.605 17.856,3.832 13.392,2.785 8.928,1.663 8.928,1.439 8.928,1.164 8.928,0.949 4.464,0.382 4.464,0.268 8.928,0.132 8.928,-0.531 8.928,-1.147 4.464,-0.612 22.32,-3.854 4.464,-0.961 4.464,-0.571 4.464,-0.732 13.392,-1.028 8.928,-0.627 8.928,-0.871 4.464,-0.523 8.928,-0.639 4.464,-0.038 4.464,0.127 8.928,0.577 4.464,0.463 4.464,0.313 4.464,0.572 4.464,0.453 8.928,1.399 4.464,0.823 8.928,2.016 4.464,1.166 4.464,1.043 4.464,1.36 4.464,0.972 4.464,1.141 4.464,0.695 8.928,0.617 4.464,-0.381 4.464,-0.158 8.928,-0.693 8.928,0.25 8.928,-0.04 4.464,-0.691 4.464,-1.243 4.464,-1.853 4.464,-2.612 8.928,-6.107 4.464,-3.502 4.464,-2.956 4.464,-3.095 4.464,-2.951 4.464,-2.517 4.464,-2.929 4.464,-2.724 4.464,-3.089 8.928,-6.704 4.464,-3.908 4.464,-3.348 4.464,-3.764 4.464,-2.943 4.464,-3.155 4.464,-2.467 8.928,-4.646 4.464,-1.619 4.464,-2.42 4.464,-1.154 4.464,-1.853 4.464,-0.325 4.464,-0.513 4.464,0.87 4.464,1.089 4.464,1.409 4.464,1.879 8.928,2.983 4.464,1.507 4.464,1.111 8.928,3.559 4.464,2.291 4.464,2.844 4.464,3.041 4.464,3.433 17.856,13.034 26.784,17.607 4.464,3.206 4.464,2.929 4.464,3.264 8.928,5.684 8.928,4.945 8.928,4.126 13.392,5.167 8.928,2.378 4.464,0.346 4.464,0.492 4.464,-0.366 4.464,-0.169 8.928,-0.538 17.856,0.548 4.464,-0.388 4.464,-0.991 4.464,-1.348 4.46,-1.869 4.47,-2.152 4.46,-1.965 4.47,-2.198 4.46,-1.502 4.46,-1.636 4.47,-1.237 4.46,-1.37 4.47,-1.527 4.46,-1.704 4.46,-2.081 4.47,-2.225 4.46,-2.474 4.47,-2.186 4.46,-2.444 4.46,-1.689 4.47,-1.948 4.46,-1.208 4.47,-1.364 4.46,-1.026 13.39,-3.598 4.47,-1.281 8.92,-2.772 4.47,-1.281 4.46,-1.058 4.47,-0.706 4.46,-0.497 4.46,-0.015 4.47,0.188 4.46,0.52 4.47,0.681 8.92,1.655 8.93,1.859 22.32,5.382 8.93,1.742 8.93,1.207 8.93,0.849 4.46,0.416 13.39,0.816 4.47,0.099 4.46,-0.089 4.46,-0.232 4.47,-0.418 8.93,-1.177 13.39,-2.316 22.32,-3.93 22.32,-3.789 35.71,-6.309 0,0"
         clip-path="url(#pf7a96be8cb)" />
    </g>
    <g
       style="stroke-linecap:butt;stroke-linejoin:round"
       id="line2d_4">
      <path
         inkscape:connector-curvature="0"
         id="path26"
         style="opacity:0.59969536;fill:none;stroke:#004ed8;stroke-width:0.7427057;stroke-linecap:square;stroke-linejoin:round"
         d="m 216,494.622 13.392,-2.523 8.928,-1.896 8.928,-2.118 8.928,-2.366 13.392,-3.913 13.392,-4.078 4.464,-1.428 22.32,-6.461 8.928,-2.202 4.464,-0.998 8.928,-1.661 4.464,-0.655 4.464,-0.524 4.464,-0.397 8.928,-0.331 8.928,0.037 4.464,0.143 4.464,-0.013 4.464,0.126 13.392,-0.091 4.464,-0.134 8.928,-0.545 8.928,-1.119 8.928,-1.741 8.928,-2.337 8.928,-2.865 8.928,-3.536 17.856,-8.137 4.464,-2.22 4.464,-1.819 4.464,-2.176 4.464,-1.899 13.392,-6.226 8.928,-3.825 8.928,-3.054 4.464,-1.15 4.464,-1.031 8.928,-1.398 4.464,-0.377 4.464,-0.225 4.464,0.032 4.464,0.266 8.928,1.302 4.464,1.374 4.464,1.075 8.928,3.593 4.464,2.213 4.464,2.359 8.928,5.276 4.464,3.158 4.464,2.752 4.464,3.503 4.464,2.962 4.464,3.599 4.464,3.455 4.464,3.767 8.928,8.012 13.392,12.575 22.32,20.222 17.856,16.714 8.928,7.471 4.464,3.116 4.464,3.29 4.464,2.535 4.464,2.797 13.392,6.994 4.464,1.85 4.464,2.002 4.464,1.803 4.464,1.501 4.464,1.749 4.464,1.138 4.464,1.435 4.464,0.92 4.464,1.063 4.464,0.444 4.464,0.736 4.464,0.266 4.464,0.508 8.928,1.332 4.464,1.177 4.464,1.06 4.464,1.6 4.464,1.126 4.464,1.762 4.464,1.135 4.464,1.767 4.464,1.39 8.928,3.798 4.464,1.951 8.928,4.289 4.464,1.989 4.464,2.289 4.464,1.712 4.464,2.296 4.464,1.767 4.464,2.197 4.464,1.765 4.464,1.997 8.928,3.177 4.464,1.417 4.464,1.044 4.464,1.221 4.464,0.584 4.464,1.073 4.464,0.268 4.464,0.751 4.464,0.05 4.464,0.354 8.928,-0.148 4.464,-0.319 8.928,-1.19 4.464,-1.26 4.464,-1.116 4.464,-1.641 8.928,-3.596 8.928,-4.215 4.464,-2.215 8.93,-5.01 13.39,-8.364 13.39,-7.754 8.93,-4.83 13.39,-7.444 8.93,-4.688 4.46,-2.104 4.47,-1.971 4.46,-1.63 4.47,-1.825 4.46,-1.448 4.46,-1.81 8.93,-3.368 4.47,-1.861 17.85,-6.321 31.25,-9.998 4.46,-1.247 4.47,-1.072 8.93,-1.751 8.92,-1.283 13.4,-1.491 8.92,-0.837 4.47,-0.304 8.93,-0.272 8.92,0.272 22.32,1.483 35.72,0.917 13.39,0.058 17.85,-0.168 22.32,0.098 17.86,0.095 0,0"
         clip-path="url(#pf7a96be8cb)" />
    </g>
    <g
       style="stroke-linecap:butt;stroke-linejoin:round"
       id="line2d_5">
      <path
         inkscape:connector-curvature="0"
         id="path29"
         style="opacity:0.52773192;fill:none;stroke:#0099b2;stroke-width:0.7427057;stroke-linecap:square;stroke-linejoin:round"
         d="m 216,514.053 8.928,0.316 8.928,0.589 8.928,0.827 8.928,1.015 8.928,1.249 8.928,1.565 8.928,1.99 8.928,2.424 8.928,2.798 8.928,3.159 4.464,1.722 4.464,1.848 8.928,4.037 8.928,4.52 8.928,4.927 4.464,2.463 13.392,8.275 4.464,3.005 4.464,3.163 8.928,6.906 8.928,7.427 13.392,11.31 4.464,3.691 22.32,17.856 8.928,7.27 8.928,6.648 4.464,2.688 4.464,2.369 4.464,1.848 4.464,1.308 4.464,1.051 4.464,0.777 4.464,0.44 4.464,0.551 8.928,0.068 4.464,-0.519 4.464,-0.902 4.464,-1.277 4.464,-1.891 4.464,-2.161 4.464,-2.437 8.928,-5.27 8.928,-5.464 8.928,-5.728 4.464,-3.223 4.464,-2.958 4.464,-3.427 4.464,-3.004 4.464,-3.224 8.928,-5.621 4.464,-2.505 4.464,-2.283 8.928,-3.717 8.928,-2.323 8.928,-0.386 4.464,0.942 4.464,1.14 4.464,2.351 4.464,2.582 4.464,3.762 4.464,4.065 4.464,4.81 4.464,5.22 4.464,5.413 8.928,11.721 8.928,12.499 8.928,13.828 8.928,15.259 13.392,23.907 8.928,15.12 4.464,7.171 8.928,13.121 8.928,11.341 4.464,4.637 4.464,4.099 4.464,3.354 4.464,2.601 4.464,2.242 4.464,1.629 4.464,1.768 4.464,1.3 4.464,1.895 4.464,1.068 4.464,1.255 4.464,0.272 4.464,-0.61 4.464,-1.389 4.464,-2.624 4.464,-3.348 4.464,-3.965 4.464,-4.427 8.928,-9.407 4.464,-5.173 4.464,-5.46 4.464,-5.843 4.464,-6.866 4.464,-7.227 4.464,-8.274 4.464,-8.561 8.928,-18.482 13.392,-29.037 8.928,-20.266 8.928,-22.219 22.32,-61.118 4.464,-11.55 4.464,-10.602 4.464,-10.109 4.464,-9.44 8.928,-17.465 8.928,-16.084 4.464,-7.28 4.464,-6.806 4.464,-5.811 4.464,-5.321 4.464,-4.287 4.464,-3.906 8.928,-6.626 8.928,-6.124 4.464,-2.911 4.46,-2.591 4.47,-2.348 4.46,-1.83 4.47,-1.434 4.46,-1.218 8.93,-1.877 4.46,-1.117 4.47,-1 4.46,-1.504 4.46,-1.273 4.47,-1.586 8.93,-2.633 4.46,-0.912 4.46,-0.718 4.47,-0.312 8.93,0.618 4.46,1.191 4.46,0.983 4.47,1.734 4.46,1.561 8.93,4.006 4.46,2.229 4.47,2.392 8.93,5.36 4.46,3.131 4.46,2.936 4.47,3.495 4.46,3.171 4.47,3.676 4.46,3.515 13.39,11.228 8.93,7.496 8.93,7.049 8.93,6.583 13.39,9.105 4.46,3.037 22.32,14.018 8.93,5.32 8.93,5.047 8.93,4.618 4.46,2.18 8.93,3.95 8.93,3.466 8.92,2.994 4.47,1.336 8.93,2.281 8.92,1.814 8.93,1.399 8.93,1.058 8.93,0.816 13.39,0.853 0,0"
         clip-path="url(#pf7a96be8cb)" />
    </g>
    <g
       style="stroke-linecap:butt;stroke-linejoin:round"
       id="line2d_6">
      <path
         inkscape:connector-curvature="0"
         id="path32"
         style="opacity:0.46440406;fill:none;stroke:#0076c4;stroke-width:0.7427057;stroke-linecap:square;stroke-linejoin:round"
         d="m 216,523.108 13.392,0.372 13.392,-0.016 8.928,-0.236 8.928,-0.495 8.928,-0.752 8.928,-0.998 13.392,-1.977 8.928,-1.649 8.928,-2.006 8.928,-2.342 17.856,-5.428 35.712,-11.74 8.928,-2.81 4.464,-1.32 8.928,-2.311 8.928,-1.803 8.928,-1.217 8.928,-0.605 4.464,-0.103 4.464,0.057 8.928,0.525 13.392,1.915 4.464,0.935 4.464,0.764 4.464,1.263 4.464,0.997 8.928,3.017 4.464,1.858 4.464,2.061 8.928,4.817 17.856,10.562 8.928,4.642 8.928,4.095 13.392,5.044 4.464,1.236 4.464,1.368 4.464,0.456 4.464,0.6 4.464,-0.475 4.464,-0.611 4.464,-1.567 4.464,-1.773 4.464,-2.326 4.464,-2.746 4.464,-2.942 4.464,-3.497 4.464,-3.748 4.464,-4.246 4.464,-5.085 4.464,-5.405 4.464,-6.444 4.464,-6.744 4.464,-7.518 4.464,-7.873 8.928,-16.859 4.464,-8.945 8.928,-18.552 4.464,-10.056 4.464,-9.674 4.464,-10.433 4.464,-9.985 4.464,-10.645 4.464,-10.032 4.464,-10.778 4.464,-10.092 8.928,-21.041 4.464,-10.358 4.464,-10.691 4.464,-10.185 4.464,-10.601 8.928,-20.45 8.928,-19.487 4.464,-9.289 4.464,-8.704 4.464,-8.41 4.464,-7.957 8.928,-14.821 4.464,-7.052 4.464,-6.467 4.464,-6.23 4.464,-5.683 4.464,-4.928 4.464,-4.321 4.464,-3.761 4.464,-2.945 4.464,-2.585 4.464,-1.971 4.464,-1.305 4.464,-0.944 4.464,0.17 4.464,0.676 4.464,2.179 4.464,2.373 4.464,3.905 4.464,4.132 4.464,4.848 8.928,11.163 4.464,7.024 4.464,6.721 8.928,17.029 8.928,19.78 8.928,20.689 13.392,31.021 8.928,20.737 17.856,42.035 4.464,10.204 4.464,9.56 4.464,9.176 4.464,8.587 4.464,8.05 4.464,7.602 4.464,7.162 4.464,6.886 4.464,6.574 8.928,12.684 8.928,11.83 4.464,5.569 8.93,9.925 8.93,8.412 17.85,15.468 8.93,7.322 4.46,3.026 4.47,2.516 4.46,1.97 4.47,1.28 4.46,1.02 8.93,1.048 8.93,0.661 8.92,0.051 8.93,-1.066 8.93,-2.06 13.39,-3.61 13.39,-3.045 8.93,-1.709 4.47,-0.708 4.46,-0.491 4.46,-0.353 8.93,0.029 8.93,0.742 13.39,2.025 4.47,0.792 8.92,2.02 8.93,2.473 31.25,9.456 13.39,3.51 8.93,2.202 8.93,2.014 8.93,1.755 40.17,6.51 8.93,1.156 8.93,0.919 13.39,1.23 0,0"
         clip-path="url(#pf7a96be8cb)" />
    </g>
    <g
       style="stroke-linecap:butt;stroke-linejoin:round"
       id="line2d_7">
      <path
         inkscape:connector-curvature="0"
         id="path35"
         style="opacity:0.40867561;fill:none;stroke:#0061ce;stroke-width:0.7427057;stroke-linecap:square;stroke-linejoin:round"
         d="m 216,517.889 22.32,2.22 13.392,1.023 13.392,0.691 8.928,0.395 8.928,0.259 8.928,-0.034 8.928,-0.402 17.856,-1.608 4.464,-0.432 8.928,-1.104 8.928,-1.619 8.928,-2.348 17.856,-6.003 13.392,-4.611 4.464,-1.441 4.464,-1.641 4.464,-1.492 4.464,-1.634 8.928,-2.991 8.928,-2.591 8.928,-1.978 8.928,-1.339 4.464,-0.555 13.392,-1.252 8.928,-0.339 4.464,0.159 8.928,1 4.464,1.216 4.464,1.043 13.392,4.274 8.928,2.687 4.464,1.16 4.464,1.482 4.464,1.192 4.464,1.672 4.464,1.401 17.856,6.573 4.464,1.928 4.464,2.266 4.464,2.546 4.464,3.155 4.464,2.922 4.464,3.697 4.464,3.019 4.464,3.168 4.464,2.75 8.928,4.86 8.928,4.691 4.464,2.569 4.464,2.818 4.464,2.656 4.464,2.906 8.928,4.781 4.464,1.848 4.464,1.644 4.464,1.477 4.464,1.036 4.464,1.213 8.928,1.507 4.464,0.463 4.464,0.077 4.464,-0.129 4.464,-0.811 4.464,-0.983 4.464,-1.92 4.464,-1.628 4.464,-2.676 4.464,-1.899 4.464,-2.178 4.464,-1.628 8.928,-1.47 4.464,0.424 4.464,0.165 4.464,0.651 13.392,1.494 4.464,0.862 4.464,1.155 4.464,1.702 4.464,2.149 4.464,2.443 4.464,2.635 8.928,4.57 4.464,1.575 4.464,1.303 4.464,1.181 4.464,0.35 4.464,0.938 4.464,-0.095 4.464,0.037 4.464,-0.839 4.464,-1.509 4.464,-2.222 4.464,-3.03 4.464,-3.927 4.464,-4.216 4.464,-5.54 4.464,-5.216 8.928,-12.929 17.856,-28.561 8.928,-13.152 8.928,-11.962 4.464,-6.032 4.464,-5.842 8.928,-12.099 8.928,-11.458 8.928,-9.394 8.928,-6.664 8.928,-4.174 4.464,-0.912 4.464,-1.06 4.464,-0.025 4.464,0.255 4.464,0.843 4.464,1.488 4.464,1.915 4.464,2.439 4.464,3.016 4.464,3.38 4.464,3.872 4.46,4.266 4.47,4.887 4.46,5.261 4.47,5.922 4.46,6.474 4.46,7.055 4.47,7.596 4.46,8.192 4.47,8.425 8.92,17.893 17.86,35.941 4.46,8.563 4.47,8.246 4.46,7.899 4.47,7.42 4.46,7.05 4.46,6.408 4.47,5.932 4.46,5.323 4.47,4.689 4.46,3.991 4.46,3.52 4.47,2.489 4.46,2.227 4.47,1.2 4.46,0.891 4.46,0.136 4.47,-0.271 4.46,-0.724 4.47,-1.268 4.46,-1.48 4.46,-2.106 4.47,-2.247 4.46,-2.807 4.47,-2.938 8.92,-6.796 8.93,-7.474 22.32,-20.179 8.93,-8.088 4.46,-3.977 8.93,-7.553 8.93,-7.014 8.93,-6.48 4.46,-3.024 4.47,-2.869 4.46,-2.699 4.46,-2.561 4.47,-2.35 4.46,-2.201 4.47,-2.011 4.46,-1.868 4.46,-1.731 8.93,-3.052 8.93,-2.553 8.93,-2.1 4.46,-0.923 8.93,-1.511 8.93,-1.163 8.93,-0.878 4.46,-0.35 0,0"
         clip-path="url(#pf7a96be8cb)" />
    </g>
    <g
       style="stroke-linecap:butt;stroke-linejoin:round"
       id="line2d_8">
      <path
         inkscape:connector-curvature="0"
         id="path38"
         style="opacity:0.35963452;fill:none;stroke:#00ff80;stroke-width:0.7427057;stroke-linecap:square;stroke-linejoin:round"
         d="m 216,517.934 4.464,-0.261 4.464,-0.19 8.928,-0.19 4.464,-0.039 13.392,0.355 8.928,0.449 4.464,0.269 8.928,0.781 8.928,1.141 8.928,1.568 8.928,1.948 8.928,2.236 8.928,2.528 4.464,1.312 8.928,3.086 8.928,3.611 8.928,4.095 8.928,4.529 8.928,4.922 4.464,2.561 8.928,5.51 13.392,9.173 4.464,3.199 8.928,6.761 8.928,7.079 13.392,10.952 13.392,10.936 8.928,7.016 8.928,6.647 8.928,6.363 13.392,9.115 4.464,2.981 8.928,5.589 8.928,5.081 4.464,2.075 4.464,2.305 13.392,5.486 8.928,2.865 8.928,1.901 8.928,0.752 4.464,-0.035 4.464,-0.239 4.464,-0.557 4.464,-0.81 4.464,-0.996 8.928,-2.487 8.928,-3.144 8.928,-3.611 8.928,-4.561 4.464,-2.48 4.464,-2.889 4.464,-2.418 4.464,-2.91 26.784,-15.056 4.464,-2.202 4.464,-2.647 4.464,-1.566 4.464,-2.048 4.464,-0.938 4.464,-1.269 4.464,-0.701 4.464,-0.982 4.464,-0.737 4.464,-1.359 4.464,-0.917 4.464,-1.641 4.464,-0.998 4.464,-1.479 4.464,-0.728 4.464,-1.306 4.464,-0.545 4.464,-1.225 4.464,-0.556 4.464,-1.338 4.464,-0.765 4.464,-1.6 4.464,-1.175 8.928,-3.545 8.928,-4.003 4.464,-2.367 4.464,-1.727 4.464,-2.407 4.464,-1.459 4.464,-2.186 4.464,-1.542 4.464,-1.96 4.464,-1.719 8.928,-3.268 4.464,-1.295 4.464,-1.505 4.464,-1.313 8.928,-3.535 8.928,-5.062 13.392,-9.291 4.464,-2.834 4.464,-3.195 4.464,-2.548 4.464,-3.472 4.464,-3.201 4.464,-3.911 4.464,-4.233 4.464,-4.451 13.392,-14.029 4.464,-4.92 4.464,-4.697 4.464,-4.955 8.928,-10.415 4.464,-5.564 8.928,-10.858 17.856,-21.763 8.928,-11.467 8.928,-11.316 8.928,-10.511 4.46,-4.965 17.86,-18.775 4.46,-5.056 4.47,-4.737 4.46,-5.095 4.47,-4.726 4.46,-4.982 8.93,-8.943 4.46,-4.026 4.47,-3.741 4.46,-3.513 4.46,-3.036 4.47,-2.761 4.46,-2.409 4.47,-1.807 4.46,-1.685 4.46,-0.792 4.47,-0.599 4.46,0.134 4.47,0.712 4.46,0.986 8.93,3.449 8.93,4.547 4.46,2.619 4.46,2.81 4.47,3.079 4.46,3.471 4.47,3.758 4.46,4.205 4.46,4.444 8.93,9.429 8.93,9.485 8.93,9.017 17.85,17.051 13.4,12.441 8.92,7.963 8.93,7.567 8.93,7.196 8.93,6.915 8.93,6.64 8.92,6.175 8.93,5.531 4.47,2.494 4.46,2.361 8.93,4.305 8.93,3.935 8.92,3.622 4.47,1.7 8.93,3.051 8.92,2.566 8.93,2.137 8.93,1.832 0,0"
         clip-path="url(#pf7a96be8cb)" />
    </g>
    <g
       style="stroke-linecap:butt;stroke-linejoin:round"
       id="line2d_9">
      <path
         inkscape:connector-curvature="0"
         id="path41"
         style="opacity:0.31647836;fill:none;stroke:#0022ee;stroke-width:0.7427057;stroke-linecap:square;stroke-linejoin:round"
         d="m 216,493.857 13.392,2.461 8.928,1.43 13.392,1.758 22.32,2.641 13.392,1.792 8.928,1.235 26.784,3.533 13.392,1.896 8.928,1.311 8.928,1.554 17.856,3.309 4.464,0.704 8.928,0.795 8.928,0.32 4.464,0.119 8.928,-0.112 8.928,-0.687 8.928,-1.542 8.928,-2.186 17.856,-4.746 8.928,-2.861 4.464,-1.536 8.928,-3.767 4.464,-2.082 4.464,-2.244 8.928,-4.125 4.464,-1.718 4.464,-1.36 4.464,-0.809 4.464,-0.335 4.464,0.315 4.464,0.674 4.464,1.022 4.464,1.232 8.928,2.968 4.464,1.876 4.464,2.119 4.464,2.537 8.928,6.255 8.928,7.206 8.928,7.008 4.464,3.085 4.464,3.354 4.464,2.819 4.464,3.195 8.928,5.318 4.464,2.169 4.464,1.384 4.464,0.945 4.464,-0.14 4.464,-0.54 4.464,-1.466 4.464,-2.114 4.464,-2.474 8.928,-7.08 4.464,-4.905 4.464,-4.723 4.464,-5.946 4.464,-5.582 4.464,-6.548 4.464,-6.221 4.464,-6.867 8.928,-14.367 8.928,-16.407 8.928,-18.41 17.856,-38.536 8.928,-18.274 8.928,-17.308 8.928,-16.065 8.928,-14.902 4.464,-6.832 4.464,-6.493 4.464,-6.046 4.464,-5.188 4.464,-4.882 4.464,-3.658 4.464,-3.293 4.464,-2.267 4.464,-1.342 4.464,-0.57 4.464,0.707 4.464,1.675 4.464,2.787 4.464,4.245 4.464,5.186 4.464,6.418 4.464,7.583 4.464,8.187 4.464,9.222 8.928,19.952 8.928,22.173 13.392,35.668 8.928,23.924 8.928,23.176 4.464,11.168 8.928,20.963 4.464,9.524 4.464,9.235 4.464,8.365 4.464,8.125 4.464,7.225 4.464,6.949 4.464,6.286 4.464,5.717 4.464,5.286 4.464,4.444 4.464,3.91 4.464,3.267 4.464,2.639 4.464,2.069 4.464,1.631 4.464,1.092 4.464,0.836 4.464,0.286 4.464,-0.057 4.464,-0.681 4.46,-0.955 8.93,-3.207 13.39,-6.55 8.93,-4.668 8.93,-5.19 4.46,-2.909 4.47,-2.75 8.93,-5.785 13.39,-8.099 8.93,-4.911 4.46,-2.161 4.46,-2.286 8.93,-3.837 4.47,-1.781 8.92,-3.035 8.93,-2.41 8.93,-1.771 8.93,-1.155 8.93,-0.814 13.39,-0.865 4.46,-0.241 8.93,-0.093 26.78,0.558 4.47,-0.115 8.93,-0.003 17.85,-0.07 8.93,-0.256 13.39,-0.627 8.93,-0.508 17.86,-1.007 13.39,-0.627 8.93,-0.416 13.39,-0.474 8.93,-0.207 13.39,-0.066 13.39,0.139 0,0"
         clip-path="url(#pf7a96be8cb)" />
    </g>
    <g
       style="stroke-linecap:butt;stroke-linejoin:round"
       id="line2d_10">
      <path
         inkscape:connector-curvature="0"
         id="path44"
         style="opacity:0.27850096;fill:none;stroke:#0021ee;stroke-width:0.7427057;stroke-linecap:square;stroke-linejoin:round"
         d="m 216,514.719 13.392,0.402 8.928,0.441 13.392,0.909 8.928,0.776 8.928,0.976 8.928,1.21 4.464,0.652 8.928,1.561 8.928,1.796 8.928,2.074 13.392,3.586 8.928,2.694 4.464,1.436 8.928,3.144 13.392,5.267 17.856,7.515 8.928,4.144 8.928,4.512 4.464,2.431 4.464,2.296 4.464,2.476 4.464,2.269 4.464,2.429 4.464,2.282 4.464,2.53 4.464,2.276 4.464,2.605 13.392,6.996 4.464,2.013 4.464,2.135 17.856,7.647 4.464,1.842 8.928,3.178 8.928,2.351 8.928,1.529 8.928,0.586 4.464,-0.109 4.464,-0.526 4.464,-0.682 4.464,-1.412 4.464,-1.276 4.464,-2.107 4.464,-1.778 4.464,-2.542 4.464,-2.236 8.928,-5.634 8.928,-6.877 8.928,-8.096 4.464,-4.274 4.464,-4.654 4.464,-4.259 4.464,-4.593 8.928,-8.34 4.464,-3.876 4.464,-3.483 4.464,-3.239 8.928,-5.609 22.32,-13.046 4.464,-2.83 4.464,-2.193 4.464,-2.552 4.464,-2.175 4.464,-2.438 8.928,-5.259 13.392,-9.271 4.464,-3.006 4.464,-2.641 8.928,-4.647 4.464,-1.849 13.392,-6.624 4.464,-2.666 4.464,-2.019 4.464,-2.269 8.928,-3.217 4.464,-1.294 8.928,-1.644 4.464,0.008 4.464,-0.13 4.464,0.951 4.464,1.321 4.464,1.893 8.928,5.035 8.928,5.466 8.928,4.818 4.464,2.182 4.464,1.879 4.464,2.327 4.464,1.523 4.464,2.315 4.464,1.463 4.464,1.753 4.464,1.254 4.464,1.394 4.464,0.851 4.464,0.992 4.464,0.841 4.464,0.597 4.464,1.213 4.464,0.68 8.928,2.886 4.464,1.811 4.464,2.154 4.464,1.895 4.464,2.318 4.464,1.651 4.464,2.068 4.464,1.456 4.464,1.864 4.464,1.696 8.928,4.51 4.464,2.828 8.928,5.247 4.464,2.176 4.464,1.633 4.464,1.185 4.464,0.674 8.928,0.491 13.392,0.176 4.46,-0.169 4.47,-0.286 4.46,-0.749 4.47,-0.983 4.46,-1.409 8.93,-3.253 4.46,-1.953 13.39,-4.532 13.4,-3.633 4.46,-0.97 4.46,-1.353 4.47,-1.01 4.46,-1.318 4.47,-1.165 4.46,-0.994 4.46,-1.127 8.93,-1.454 8.93,-0.792 8.93,-0.339 4.46,-0.077 22.32,0.413 4.47,0.127 8.92,0.422 13.4,0.503 22.32,0.208 8.92,0.376 13.4,1.087 13.39,0.613 40.17,0.985 22.32,1.127 8.93,0.5 8.93,0.301 8.93,0.044 22.32,-0.368 8.93,-0.317 4.46,-0.22 0,0"
         clip-path="url(#pf7a96be8cb)" />
    </g>
    <g
       style="stroke-linecap:butt;stroke-linejoin:round"
       id="line2d_11">
      <path
         inkscape:connector-curvature="0"
         id="path47"
         style="opacity:0.24508087;fill:none;stroke:#0091b6;stroke-width:0.7427057;stroke-linecap:square;stroke-linejoin:round"
         d="m 216,517.702 8.928,-0.792 13.392,-1.416 8.928,-1.084 8.928,-1.321 8.928,-1.745 8.928,-2.285 4.464,-1.33 8.928,-2.946 13.392,-4.847 17.856,-6.901 13.392,-5.764 17.856,-8.035 17.856,-8.648 26.784,-14.552 8.928,-5.16 4.464,-2.829 4.464,-3.011 8.928,-6.66 8.928,-7.34 8.928,-7.754 8.928,-7.976 22.32,-20.948 8.928,-7.889 13.392,-10.763 8.928,-6.554 4.464,-2.904 4.464,-2.641 4.464,-2.214 4.464,-1.611 4.464,-1.067 4.464,-0.462 4.464,0.268 4.464,0.648 4.464,1.237 4.464,1.619 4.464,2.147 4.464,2.522 4.464,3.081 4.464,3.729 4.464,4.18 4.464,5.19 4.464,5.602 4.464,6.472 4.464,7.174 4.464,7.66 4.464,8.464 4.464,8.888 4.464,9.555 4.464,10.23 4.464,10.832 4.464,11.646 4.464,12.304 4.464,12.966 4.464,13.632 8.928,28.572 31.248,104.068 4.464,14.515 4.464,13.729 4.464,13.339 4.464,12.644 4.464,11.877 4.464,11.18 4.464,10.269 4.464,9.334 4.464,8.573 4.464,7.549 4.464,6.948 4.464,5.741 4.464,5.161 4.464,4.222 4.464,3.32 4.464,2.61 4.464,1.841 4.464,0.662 4.464,0.334 4.464,-1.159 4.464,-1.391 4.464,-2.283 4.464,-2.871 4.464,-3.153 4.464,-3.584 4.464,-3.759 4.464,-4.084 4.464,-4.455 4.464,-4.771 8.928,-10.423 8.928,-11.326 8.928,-11.081 4.464,-4.989 4.464,-5.417 4.464,-4.994 4.464,-5.215 4.464,-4.985 4.464,-5.294 4.464,-4.667 4.464,-5.018 8.928,-8.357 8.928,-7.284 4.464,-3.038 4.464,-3.426 4.464,-2.823 8.928,-5.906 4.464,-2.39 4.464,-2.901 4.464,-2.004 4.464,-2.555 4.464,-1.853 4.464,-2.262 4.464,-1.751 4.464,-1.981 8.928,-3.573 4.464,-1.89 4.464,-1.653 4.464,-1.992 4.464,-1.557 4.464,-2.008 8.928,-3.445 4.464,-1.87 4.464,-1.61 8.928,-3.799 8.93,-4.191 13.39,-7.105 4.46,-2.772 4.47,-2.538 4.46,-2.99 8.93,-6.326 8.93,-7.306 13.39,-11.701 4.46,-3.822 22.32,-20.243 4.47,-4.436 4.46,-3.948 4.47,-4.152 8.92,-7.492 4.47,-3.571 13.39,-9.996 4.46,-3.251 8.93,-6.152 8.93,-5.464 4.46,-2.387 8.93,-4.221 8.93,-3.409 4.46,-1.445 4.47,-1.3 4.46,-1.132 4.47,-0.961 4.46,-0.81 8.93,-1.111 8.93,-0.45 8.92,0.149 8.93,0.661 8.93,1.092 8.93,1.429 8.93,1.698 8.92,1.979 31.25,7.334 17.86,3.762 8.93,1.756 4.46,0.847 13.39,2.102 8.93,1.152 0,0"
         clip-path="url(#pf7a96be8cb)" />
    </g>
    <g
       style="stroke-linecap:butt;stroke-linejoin:round"
       id="line2d_12">
      <path
         inkscape:connector-curvature="0"
         id="path50"
         style="opacity:0.21567114;fill:none;stroke:#0016f4;stroke-width:0.7427057;stroke-linecap:square;stroke-linejoin:round"
         d="m 216,497.739 13.392,1.39 13.392,1.206 31.248,2.363 35.712,2.459 17.856,0.758 13.392,0.562 13.392,0.742 40.176,1.877 8.928,1.131 8.928,1.785 4.464,1.037 4.464,1.221 4.464,1.074 8.928,2.421 4.464,1.116 4.464,1.291 4.464,1.061 4.464,1.212 8.928,1.904 4.464,0.774 8.928,0.554 4.464,-0.294 4.464,-0.499 4.464,-0.77 8.928,-2.25 8.928,-2.941 4.464,-1.762 4.464,-1.986 4.464,-2.397 4.464,-2.644 4.464,-2.994 8.928,-6.762 4.464,-3.587 8.928,-6.742 8.928,-6.302 13.392,-8.384 4.464,-2.552 4.464,-2.116 4.464,-1.695 4.464,-1.294 4.464,-0.68 4.464,-0.556 22.32,-0.634 4.464,0.029 4.464,0.692 4.464,0.553 13.392,3.877 8.928,2.98 4.464,1.755 4.464,2.163 4.464,2.579 4.464,3.282 4.464,4.042 4.464,4.672 4.464,5.168 4.464,5.666 4.464,5.88 8.928,12.439 4.464,6.457 8.928,13.912 8.928,15.496 8.928,17.11 13.392,27.45 4.464,8.865 8.928,16.671 8.928,14.187 8.928,12.149 4.464,5.334 4.464,5.088 4.464,4.534 4.464,3.874 4.464,3.163 4.464,2.299 4.464,1.386 4.464,0.628 4.464,0.074 4.464,-0.778 4.464,-0.372 4.464,-1.366 4.464,-0.859 4.464,-1.497 8.928,-4.039 8.928,-7.084 4.464,-4.506 8.928,-9.873 4.464,-5.491 4.464,-4.806 4.464,-5.4 4.464,-4.529 4.464,-5.434 4.464,-4.797 13.392,-16.96 8.928,-11.836 13.392,-16.795 17.856,-21.49 4.464,-5.589 13.392,-15.727 4.464,-4.814 4.464,-4.356 4.464,-3.907 4.464,-3.433 4.464,-2.792 4.46,-2.461 4.47,-1.89 8.93,-3.123 4.46,-1.009 4.46,-1.305 8.93,-1.53 4.47,-0.352 4.46,-0.146 8.93,0.734 13.39,2.62 4.46,1.012 4.47,1.164 8.93,2.793 13.39,4.909 4.46,1.479 4.47,1.084 4.46,0.87 4.46,0.515 8.93,0.455 17.86,-0.061 4.46,-0.151 8.93,-0.847 22.32,-3.153 4.46,-0.388 4.47,-0.543 4.46,-0.312 4.47,-0.547 4.46,-0.413 17.86,-2.193 8.92,-0.783 8.93,-0.3 8.93,0.184 13.39,0.719 13.39,0.79 26.79,1.816 8.93,0.419 13.39,0.364 17.85,0.334 8.93,-0.011 8.93,-0.235 0,0"
         clip-path="url(#pf7a96be8cb)" />
    </g>
    <g
       style="stroke-linecap:butt;stroke-linejoin:round"
       id="line2d_13">
      <path
         inkscape:connector-curvature="0"
         id="path53"
         style="opacity:0.18979061;fill:none;stroke:#0059d2;stroke-width:0.7427057;stroke-linecap:square;stroke-linejoin:round"
         d="m 216,512.077 13.392,-0.886 13.392,-1.112 13.392,-1.414 8.928,-1.147 8.928,-1.411 8.928,-1.73 8.928,-2.165 4.464,-1.244 8.928,-2.819 8.928,-3.127 13.392,-4.982 8.928,-3.514 8.928,-3.768 26.784,-11.914 8.928,-3.479 4.464,-1.594 4.464,-1.416 4.464,-1.202 4.464,-0.977 4.464,-0.651 4.464,-0.375 4.464,-0.055 4.464,0.358 4.464,0.579 4.464,1.046 4.464,1.346 4.464,1.796 4.464,2.216 4.464,2.682 4.464,3.048 8.928,7.414 8.928,8.654 17.856,18.927 8.928,9.59 22.32,24.057 13.392,15.264 4.464,5.127 8.928,9.684 8.928,8.437 8.928,7.002 8.928,5.528 4.464,2.286 8.928,3.762 8.928,1.921 4.464,0.126 4.464,-0.314 4.464,-1.29 4.464,-1.609 8.928,-5.739 4.464,-3.844 4.464,-4.046 4.464,-4.593 4.464,-4.759 8.928,-11.246 8.928,-13.906 4.464,-7.906 8.928,-17.203 4.464,-9.576 4.464,-9.252 4.464,-10.274 4.464,-9.935 8.928,-21.658 4.464,-11.098 13.392,-34.034 4.464,-11.121 8.928,-21.094 13.392,-29.319 8.928,-19.173 17.856,-37.021 8.928,-16.5 4.464,-7.439 4.464,-6.872 4.464,-6.249 4.464,-5.772 4.464,-5.29 8.928,-9.326 4.464,-3.674 4.464,-3.941 8.928,-5.893 4.464,-2.355 8.928,-3.828 4.464,-1.125 4.464,-1.329 8.928,-0.845 4.464,0.178 4.464,0.802 4.464,1.174 4.464,1.59 8.928,4.925 8.928,7.335 4.464,4.715 4.464,5.206 4.464,6.05 4.464,6.417 8.928,14.283 8.928,15.527 4.464,8.08 8.928,17.027 8.928,18.357 13.392,28.617 4.464,9.384 4.464,9.028 4.464,8.754 4.464,8.44 8.928,15.794 8.928,14.568 8.93,13.329 4.46,6.239 4.47,5.914 4.46,5.629 4.46,5.148 4.47,4.879 4.46,4.324 4.47,3.98 4.46,3.43 4.46,3.206 4.47,2.81 4.46,2.606 4.47,2.437 8.92,4.385 4.47,1.634 4.46,1.789 8.93,2.268 4.46,0.826 26.79,3.728 13.39,2.169 13.39,1.484 4.47,0.222 4.46,0.533 4.46,0.239 13.4,1.471 17.85,2.649 4.47,0.631 8.92,1.076 4.47,0.326 4.46,0.445 26.79,1.578 8.92,0.113 49.11,-1.098 35.71,-0.634 8.93,0.138 13.39,0.49 0,0"
         clip-path="url(#pf7a96be8cb)" />
    </g>
    <g
       style="stroke-linecap:butt;stroke-linejoin:round"
       id="line2d_14">
      <path
         inkscape:connector-curvature="0"
         id="path56"
         style="opacity:0.16701576;fill:none;stroke:#0078c3;stroke-width:0.7427057;stroke-linecap:square;stroke-linejoin:round"
         d="m 216,518.328 22.32,1.191 26.784,1.871 13.392,0.377 17.856,0.087 8.928,-0.138 4.464,-0.189 4.464,-0.31 4.464,-0.437 8.928,-1.231 13.392,-2.327 8.928,-1.733 8.928,-1.969 8.928,-2.281 13.392,-3.616 13.392,-3.77 4.464,-1.377 4.464,-1.503 4.464,-1.633 8.928,-3.614 8.928,-4.004 8.928,-4.196 22.32,-10.911 8.928,-3.79 4.464,-1.552 4.464,-1.345 8.928,-1.691 8.928,-0.303 4.464,0.305 4.464,0.606 4.464,0.838 4.464,1.283 4.464,1.632 4.464,2.297 4.464,2.629 8.928,7.626 8.928,9.972 22.32,28.781 4.464,6.102 4.464,5.909 8.928,13.16 4.464,6.81 4.464,7.165 13.392,20.409 4.464,6.671 4.464,6.094 4.464,6.568 4.464,6.253 22.32,34.595 8.928,12.511 13.392,16.388 4.464,5.287 4.464,5.585 4.464,5.322 4.464,5.663 4.464,5.15 4.464,5.439 4.464,4.571 4.464,4.896 4.464,4.104 4.464,4.276 4.464,4.003 4.464,3.677 4.464,3.887 4.464,3.204 4.464,3.558 8.928,5.975 4.464,2.608 4.464,2.249 4.464,1.988 4.464,1.47 8.928,1.833 4.464,0.156 4.464,0.697 4.464,0.374 8.928,1.606 4.464,1.029 4.464,0.652 4.464,0.784 8.928,-0.217 4.464,-0.694 8.928,-1.692 13.392,-3.34 4.464,-1.886 4.464,-1.551 4.464,-2.593 4.464,-2.155 4.464,-2.646 8.928,-4.902 4.464,-2.259 8.928,-4.99 4.464,-3.1 4.464,-3.46 4.464,-3.858 4.464,-4.428 4.464,-4.664 4.464,-4.937 4.464,-5.289 4.464,-5.005 4.464,-5.74 4.464,-5.227 8.928,-11.527 4.464,-5.421 4.464,-5.881 4.464,-5.077 4.464,-5.319 4.464,-4.899 8.928,-9.174 8.928,-8.479 17.856,-16.192 8.93,-7.619 4.46,-3.342 4.47,-2.988 4.46,-2.375 4.46,-1.757 4.47,-1.494 4.46,-0.826 4.47,-0.698 4.46,-0.578 4.46,-0.253 4.47,-0.515 8.93,0.102 8.92,1.183 13.4,3.049 8.92,1.432 4.47,0.202 4.46,0.387 8.93,0.197 8.93,0.097 4.46,-0.201 4.47,-0.336 4.46,-0.78 4.46,-1.078 4.47,-1.447 4.46,-1.857 4.47,-2.058 4.46,-2.341 8.93,-5.197 8.93,-5.761 4.46,-2.982 17.86,-12.833 4.46,-3.244 8.93,-6.735 22.32,-16.635 8.93,-6.224 8.92,-5.718 4.47,-2.687 8.93,-4.894 4.46,-2.229 8.93,-3.984 8.93,-3.362 8.92,-2.825 8.93,-2.422 8.93,-2.073 8.93,-1.7 8.93,-1.29 8.92,-0.944 13.4,-0.996 4.46,-0.265 0,0"
         clip-path="url(#pf7a96be8cb)" />
    </g>
    <g
       style="stroke-linecap:butt;stroke-linejoin:round"
       id="line2d_15">
      <path
         inkscape:connector-curvature="0"
         id="path59"
         style="opacity:0.14697385;fill:none;stroke:#0070c7;stroke-width:0.7427057;stroke-linecap:square;stroke-linejoin:round"
         d="m 216,494.833 13.392,-0.48 13.392,-0.19 8.928,0.054 8.928,0.182 13.392,0.52 17.856,0.989 8.928,0.634 8.928,0.786 8.928,0.994 22.32,2.914 22.32,2.748 4.464,0.342 4.464,0.576 4.464,0.25 4.464,0.384 8.928,0.362 8.928,0.105 26.784,-0.465 13.392,-0.482 4.464,-0.366 4.464,-0.17 4.464,-0.343 4.464,-0.177 8.928,-0.082 4.464,0.369 4.464,0.128 8.928,0.727 4.464,0.204 4.464,0.457 4.464,0.076 4.464,0.526 4.464,0.328 4.464,0.718 4.464,0.838 8.928,2.271 4.464,1.574 4.464,1.159 4.464,1.714 4.464,1.052 4.464,1.318 17.856,3.794 4.464,0.804 4.464,1.222 4.464,1.067 8.928,2.506 4.464,1.138 8.928,1.706 8.928,0.374 8.928,-1.014 4.464,-0.6 4.464,-0.96 4.464,-0.43 4.464,-1.095 4.464,-0.162 4.464,-0.921 4.464,-0.631 4.464,-0.828 4.464,-1.616 4.464,-1.236 4.464,-2.318 4.464,-2.078 17.856,-10.046 4.464,-2.232 4.464,-2.641 4.464,-2.232 4.464,-2.689 4.464,-2.418 4.464,-2.631 8.928,-4.817 4.464,-1.929 4.464,-2.184 4.464,-1.239 4.464,-1.991 4.464,-0.985 4.464,-1.738 4.464,-1.38 4.464,-1.73 8.928,-4.001 4.464,-2.319 4.464,-2.157 8.928,-3.925 8.928,-2.597 4.464,-0.971 4.464,-0.851 4.464,-1.138 8.928,-2.117 4.464,-1.53 4.464,-1.004 4.464,-1.332 4.464,-0.758 8.928,-0.751 4.464,0.396 4.464,-0.03 4.464,0.528 4.464,0.347 4.464,-0.025 4.464,0.237 4.464,-0.465 4.464,-0.201 8.928,-0.897 8.928,0.139 4.464,1.113 4.464,1.255 8.928,4.493 4.464,2.89 4.464,2.683 4.464,3.004 4.464,2.578 4.464,2.846 4.464,2.298 4.464,2.898 4.464,2.478 13.392,9.04 4.464,3.362 4.464,2.937 4.464,3.376 8.928,5.309 4.464,2.038 4.464,1.62 4.46,1.037 4.47,0.55 4.46,-0.058 4.47,-0.225 8.92,-1.615 4.47,-1.186 4.46,-1.559 4.47,-1.814 4.46,-2.394 4.46,-2.875 4.47,-3.294 8.93,-7.807 13.39,-12.752 13.39,-12.375 8.93,-7.773 4.46,-3.579 4.47,-3.366 4.46,-3.111 4.46,-2.727 4.47,-2.359 4.46,-2.172 4.47,-1.643 4.46,-1.459 4.46,-1.087 4.47,-0.718 4.46,-0.459 4.47,-0.215 4.46,0.033 4.46,0.233 4.47,0.404 4.46,0.628 4.47,0.775 4.46,0.971 4.46,1.205 4.47,1.324 8.93,3.064 13.39,4.769 13.39,4.753 8.93,3.429 40.17,15.753 22.32,8.458 8.93,3.123 8.93,2.896 8.93,2.652 8.93,2.37 8.92,2.055 8.93,1.714 8.93,1.337 0,0"
         clip-path="url(#pf7a96be8cb)" />
    </g>
    <g
       style="stroke-linecap:butt;stroke-linejoin:round"
       id="line2d_16">
      <path
         inkscape:connector-curvature="0"
         id="path62"
         style="opacity:0.12933703;fill:none;stroke:#0026ec;stroke-width:0.7427057;stroke-linecap:square;stroke-linejoin:round"
         d="m 216,489.497 4.464,0.548 4.464,0.452 4.464,0.434 13.392,0.856 13.392,0.433 13.392,0.276 26.784,0.357 8.928,-0.016 4.464,-0.004 8.928,0.256 8.928,0.537 22.32,1.77 8.928,0.797 4.464,0.398 40.176,5.204 4.464,0.457 4.464,0.781 4.464,0.639 26.784,6.314 8.928,1.588 4.464,0.497 13.392,2.349 17.856,3.748 17.856,3.345 8.928,2.248 8.928,2.876 4.464,1.689 4.464,1.455 4.464,1.816 8.928,3.149 4.464,1.717 4.464,1.413 4.464,1.861 4.464,1.724 8.928,4.649 8.928,5.971 4.464,3.574 4.464,3.3 4.464,3.519 8.928,6.227 17.856,11.089 4.464,2.725 4.464,2.367 4.464,2.685 4.464,1.746 4.464,2.011 13.392,4.52 4.464,1.098 4.464,1.543 8.928,1.568 4.464,0.19 4.464,-0.737 4.464,-0.967 4.464,-1.966 4.464,-2.113 4.464,-2.552 8.928,-6.089 4.464,-3.641 4.464,-3.989 4.464,-4.44 4.464,-4.939 4.464,-5.191 8.928,-11.076 4.464,-5.83 4.464,-5.565 4.464,-5.9 4.464,-5.676 4.464,-5.901 8.928,-12.309 8.928,-13.411 4.464,-7.113 8.928,-13.687 4.464,-6.565 4.464,-5.781 4.464,-5.399 4.464,-4.56 8.928,-7.611 4.464,-2.899 4.464,-3.065 4.464,-2.379 4.464,-2.243 4.464,-1.561 4.464,-0.935 4.464,-0.02 4.464,0.689 4.464,1.532 4.464,2.17 4.464,2.46 4.464,2.981 4.464,2.636 4.464,3.382 4.464,2.842 4.464,3.664 4.464,3.308 4.464,4.197 4.464,3.877 4.464,4.602 4.464,4.182 4.464,4.391 4.464,3.973 4.464,3.649 4.464,3.2 4.464,2.503 4.464,2.375 4.464,1.618 4.464,1.797 8.928,2.557 4.464,1.1 4.464,0.879 4.464,0.626 4.464,0.149 4.464,-0.194 4.464,-0.638 4.464,-1.024 8.924,-2.815 4.47,-1.728 4.46,-1.6 13.39,-5.516 4.47,-2.167 4.46,-1.919 4.47,-2.247 13.39,-6.248 8.93,-3.699 8.92,-2.778 8.93,-1.609 4.47,-0.455 4.46,-0.222 4.46,-0.049 8.93,0.285 4.47,0.366 4.46,0.571 4.46,0.848 4.47,1.19 4.46,1.504 4.47,1.995 4.46,2.166 8.93,5.217 13.39,8.314 13.39,8.294 17.86,10.823 4.46,2.506 4.47,2.357 8.92,4.03 4.47,1.583 4.46,1.44 4.47,1.165 4.46,1.034 8.93,1.555 8.93,0.997 8.92,0.506 8.93,0.034 8.93,-0.379 8.93,-0.659 17.85,-1.795 40.18,-4.146 13.39,-0.805 4.47,-0.218 4.46,-0.088 0,0"
         clip-path="url(#pf7a96be8cb)" />
    </g>
    <g
       style="stroke-linecap:butt;stroke-linejoin:round"
       id="line2d_17">
      <path
         inkscape:connector-curvature="0"
         id="path65"
         style="opacity:0.11381656;fill:none;stroke:#006ec8;stroke-width:0.7427057;stroke-linecap:square;stroke-linejoin:round"
         d="m 216,521.116 17.856,-0.255 8.928,0.081 4.464,0.097 8.928,0.451 8.928,0.776 8.928,1.113 4.464,0.63 13.392,2.389 4.464,0.883 8.928,2.115 4.464,1.214 8.928,2.92 8.928,3.491 8.928,3.91 13.392,6.532 4.464,2.362 8.928,5.066 8.928,5.592 13.392,9.225 22.32,15.932 4.464,2.888 4.464,3.054 4.464,2.825 17.856,11.952 4.464,2.989 4.464,2.738 4.464,2.57 4.464,2.231 4.464,2.066 8.928,3.369 8.928,2.769 4.464,1.306 8.928,1.917 8.928,0.701 4.464,-0.182 4.464,-0.349 8.928,-1.309 13.392,-2.762 8.928,-2.295 4.464,-1.527 4.464,-1.823 4.464,-2.023 8.928,-5.192 4.464,-3.155 4.464,-2.907 4.464,-3.046 8.928,-5.482 8.928,-4.876 4.464,-2.38 8.928,-5.016 4.464,-2.796 4.464,-2.561 4.464,-2.86 8.928,-5.006 8.928,-4.137 4.464,-1.723 4.464,-1.376 8.928,-2.027 4.464,-0.361 4.464,-0.661 4.464,0.144 4.464,-0.525 4.464,0.202 4.464,-0.144 4.464,0.218 4.464,0.539 4.464,0.77 4.464,1.488 4.464,1.973 4.464,2.367 8.928,6.323 4.464,3.866 8.928,8.306 8.928,9.577 4.464,5.295 4.464,5.597 4.464,5.895 4.464,6.293 4.464,6.737 4.464,6.976 8.928,14.645 8.928,14.516 8.928,13.02 8.928,11.584 13.392,15.952 4.464,5.002 4.464,4.622 4.464,4.188 4.464,3.406 4.464,3.074 4.464,2.346 4.464,1.672 4.464,1.447 4.464,0.78 4.464,0.511 4.464,-0.094 4.464,-0.452 4.464,-1.044 4.464,-1.197 8.928,-3.598 8.928,-3.975 4.464,-2.239 4.464,-2.051 4.464,-2.636 4.464,-2.398 4.464,-2.968 8.928,-5.698 4.464,-3.295 4.464,-2.794 4.464,-3.451 4.464,-3.038 4.464,-3.591 4.464,-3.261 4.464,-3.55 8.928,-6.571 13.392,-9.436 4.464,-3.291 8.928,-8.011 13.39,-13.81 8.93,-8.513 4.46,-3.933 31.25,-25.499 4.47,-3.315 4.46,-3.564 4.46,-3.269 4.47,-3.58 4.46,-3.39 4.47,-3.75 13.39,-10.624 4.46,-3.299 4.47,-2.971 4.46,-2.747 4.46,-2.599 8.93,-4.777 8.93,-4.876 22.32,-12.915 4.46,-2.469 8.93,-4.4 8.93,-3.822 8.93,-3.273 4.46,-1.455 4.47,-1.268 8.92,-2.18 13.4,-2.295 8.92,-1.246 8.93,-0.927 8.93,-0.546 8.93,-0.158 40.17,0.355 17.86,0.769 13.39,0.585 8.93,0.253 17.86,0.337 4.46,0.067 0,0"
         clip-path="url(#pf7a96be8cb)" />
    </g>
    <g
       style="stroke-linecap:butt;stroke-linejoin:round"
       id="line2d_18">
      <path
         inkscape:connector-curvature="0"
         id="path68"
         style="opacity:0.10015857;fill:none;stroke:#00c49d;stroke-width:0.7427057;stroke-linecap:square;stroke-linejoin:round"
         d="m 216,512.171 4.464,0.051 4.464,-0.002 8.928,-0.178 8.928,-0.508 8.928,-0.867 8.928,-1.204 8.928,-1.585 4.464,-0.967 4.464,-1.102 4.464,-1.257 4.464,-1.421 4.464,-1.625 4.464,-1.752 8.928,-4.151 4.464,-2.421 4.464,-2.549 8.928,-5.824 8.928,-6.732 4.464,-3.711 4.464,-3.887 4.464,-4.036 8.928,-8.513 22.32,-22.303 4.464,-4.491 8.928,-9.547 8.928,-10.113 17.856,-21.426 17.856,-22.023 22.32,-28.207 4.464,-5.488 13.392,-17.507 8.928,-12.334 22.32,-31.543 8.928,-11.859 8.928,-11.044 4.464,-5.257 4.464,-4.714 4.464,-4.27 4.464,-3.865 8.928,-5.619 4.464,-1.653 4.464,-1.521 4.464,-0.679 4.464,-0.524 4.464,-0.003 4.464,0.574 4.464,0.828 4.464,1.925 4.464,2.208 4.464,3.355 4.464,4.061 4.464,4.862 4.464,5.763 4.464,6.231 8.928,14.303 8.928,16.186 8.928,18.121 4.464,9.853 4.464,10.294 8.928,21.898 13.392,33.844 8.928,21.268 13.392,29.5 13.392,27.93 4.464,8.825 4.464,7.646 4.464,6.985 4.464,5.715 4.464,4.673 4.464,3.566 4.464,3.044 4.464,1.812 4.464,2.028 8.928,1.566 4.464,-0.27 4.464,-0.825 4.464,-1.939 4.464,-2.296 4.464,-3.767 4.464,-3.459 4.464,-5.08 4.464,-4.411 4.464,-5.921 4.464,-5.192 4.464,-6.588 4.464,-6.051 17.856,-26.822 4.464,-6.772 4.464,-6.357 4.464,-6.785 4.464,-6.113 4.464,-6.429 8.928,-10.879 4.464,-4.263 4.464,-3.889 4.464,-2.891 4.464,-2.241 4.464,-1.646 4.464,-1.154 4.464,-0.574 4.464,-0.145 4.464,0.416 4.464,1.38 4.464,1.593 4.464,3.112 4.464,3.472 4.464,4.62 4.464,5.383 4.464,6.12 4.464,6.788 4.464,7.216 8.928,15.551 8.928,16.608 4.464,8.401 17.856,35.49 8.928,17.212 8.928,15.213 4.46,6.723 4.47,6.306 4.46,5.826 4.47,5.392 4.46,4.932 4.46,4.685 4.47,4.079 4.46,3.752 4.47,3.21 4.46,2.689 4.46,2.249 4.47,1.706 4.46,1.305 4.47,0.863 4.46,0.444 4.46,0.045 4.47,-0.467 4.46,-0.658 8.93,-2.529 8.93,-3.701 4.46,-2.275 8.93,-4.968 4.46,-3.035 4.47,-2.782 8.93,-6.186 17.85,-11.633 22.32,-13.561 8.93,-4.778 4.46,-2.131 4.47,-1.981 4.46,-1.797 4.47,-1.608 4.46,-1.357 4.46,-1.218 4.47,-0.951 4.46,-0.803 4.47,-0.646 8.92,-0.948 8.93,-0.642 4.47,-0.236 4.46,-0.081 8.93,0.174 8.93,0.641 40.17,4.254 22.32,2.2 13.39,1.121 17.86,1.208 0,0"
         clip-path="url(#pf7a96be8cb)" />
    </g>
    <g
       style="stroke-linecap:butt;stroke-linejoin:round"
       id="line2d_19">
      <path
         inkscape:connector-curvature="0"
         id="path71"
         style="opacity:0.08813955;fill:none;stroke:#001cf1;stroke-width:0.7427057;stroke-linecap:square;stroke-linejoin:round"
         d="m 216,509.712 35.712,1.975 35.712,1.705 17.856,0.897 13.392,0.695 31.248,1.897 17.856,0.893 17.856,1.195 4.464,0.444 4.464,0.214 4.464,0.409 13.392,0.459 4.464,-0.027 8.928,-0.41 17.856,-1.28 4.464,-0.14 4.464,-0.371 4.464,-0.071 4.464,-0.532 4.464,-0.338 8.928,-1.568 17.856,-4.274 8.928,-1.438 8.928,-0.441 8.928,0.186 4.464,0.343 4.464,0.139 4.464,0.462 4.464,0.253 8.928,1.166 4.464,0.798 4.464,1.029 8.928,2.615 8.928,3.13 8.928,3.221 4.464,1.765 4.464,1.536 4.464,1.92 8.928,3.56 4.464,1.994 4.464,1.742 4.464,2.104 4.464,1.677 4.464,1.955 8.928,3.474 8.928,3.599 8.928,4.167 8.928,5.206 4.464,3.077 4.464,3.338 4.464,3.555 8.928,7.529 8.928,7.733 4.464,3.732 13.392,11.726 8.928,8.66 4.464,5.133 4.464,4.645 4.464,5.394 4.464,4.746 4.464,5.342 8.928,9.501 4.464,4.751 4.464,4.325 4.464,4.857 4.464,4.219 4.464,4.541 8.928,8.002 4.464,3.455 4.464,3.255 4.464,2.698 4.464,2.342 4.464,2.136 8.928,3.3 4.464,1.415 4.464,1.055 4.464,1.25 4.464,0.389 4.464,0.883 4.464,-0.568 4.464,0.075 8.928,-2.816 4.464,-1.937 8.928,-5.823 8.928,-7.883 8.928,-9.523 13.392,-16.319 13.392,-17.185 4.464,-5.818 8.928,-12.748 8.928,-14.182 13.392,-22.674 4.464,-7.776 8.928,-14.71 8.928,-13.681 8.928,-12.382 8.928,-10.845 4.464,-4.952 4.464,-4.631 8.93,-8.754 4.46,-3.841 4.47,-3.989 4.46,-3.411 4.46,-3.155 4.47,-2.738 4.46,-2.177 4.47,-1.702 4.46,-1.06 4.46,-0.723 8.93,0.057 8.93,1.229 4.46,0.785 4.47,0.969 8.93,2.183 8.92,3.116 4.47,1.998 8.93,4.414 4.46,2.408 8.93,4.497 8.93,3.987 17.85,7.437 4.47,1.823 4.46,1.665 4.46,1.465 4.47,1.244 4.46,1.053 8.93,1.433 8.93,0.87 8.93,0.554 8.92,0.185 8.93,-0.131 31.25,-1.238 26.78,-1.282 13.4,-0.681 8.92,-0.264 8.93,-0.058 13.39,0.202 40.18,0.576 0,0"
         clip-path="url(#pf7a96be8cb)" />
    </g>
    <g
       style="stroke-linecap:butt;stroke-linejoin:round"
       id="line2d_20">
      <path
         inkscape:connector-curvature="0"
         id="path74"
         style="opacity:0.07756282;fill:none;stroke:#0041de;stroke-width:0.7427057;stroke-linecap:square;stroke-linejoin:round"
         d="m 216,517.296 17.856,0.49 26.784,0.706 26.784,0.312 8.928,-0.163 8.928,-0.382 8.928,-0.615 8.928,-0.897 13.392,-1.81 4.464,-0.745 4.464,-0.566 4.464,-0.729 4.464,-0.579 13.392,-2.223 8.928,-1.838 8.928,-1.973 4.464,-0.878 4.464,-0.754 4.464,-0.6 8.928,-0.776 13.392,-0.229 4.464,0.143 4.464,0.255 4.464,0.453 8.928,1.479 8.928,2.339 4.464,1.293 4.464,1.543 4.464,1.37 4.464,1.532 4.464,1.677 4.464,1.531 4.464,2.029 4.464,1.856 4.464,2.168 8.928,4.098 8.928,3.104 4.464,0.701 4.464,0.564 8.928,-0.344 13.392,-1.759 4.464,-0.588 4.464,-0.418 4.464,-0.649 8.928,-1.109 8.928,-1.912 4.464,-1.585 4.464,-1.863 4.464,-2.264 4.464,-2.754 8.928,-6.407 13.392,-10.849 4.464,-3.875 4.464,-4.123 4.464,-4.712 4.464,-4.971 8.928,-12.042 13.392,-20.767 4.464,-7.093 22.32,-34.28 13.392,-21.511 4.464,-7.746 4.464,-6.578 4.464,-7.722 4.464,-5.894 4.464,-6.294 4.464,-5.067 4.464,-4.366 4.464,-3.8 8.928,-5.024 8.928,-2.309 4.464,-0.203 4.464,0.202 4.464,0.658 8.928,2.945 26.784,12.541 4.464,2.471 4.464,2.055 4.464,3.006 4.464,2.283 4.464,3.225 4.464,2.602 8.928,5.592 8.928,5.096 8.928,4.94 4.464,2.477 4.464,2.104 4.464,2.318 4.464,1.754 4.464,2.016 8.928,3.653 4.464,2.255 4.464,2.124 13.392,7.855 4.464,3.014 4.464,2.822 4.464,3.174 4.464,3.512 4.464,3.708 4.464,4.332 4.464,4.848 4.464,5.044 4.464,5.908 4.464,5.691 4.464,6.386 4.464,6.027 4.464,6.36 4.464,6.074 22.32,31.685 4.464,6.449 4.464,6.891 8.93,12.716 4.46,6.079 4.47,5.465 4.46,5.24 4.46,4.683 4.47,4.339 8.93,7.992 8.92,7.323 4.47,3.398 4.46,3.222 4.47,2.816 4.46,2.566 8.93,3.834 4.46,1.068 4.47,1.212 4.46,0.355 4.46,0.61 8.93,-0.081 4.47,-0.296 4.46,-0.499 4.46,-0.647 8.93,-1.683 8.93,-2.135 13.39,-4.231 8.93,-3.378 8.93,-3.769 4.46,-1.906 31.25,-14.515 8.93,-3.859 8.93,-3.667 4.46,-1.637 4.46,-1.798 13.4,-4.724 8.92,-2.886 8.93,-2.555 8.93,-2.159 8.93,-1.792 8.93,-1.515 13.39,-1.995 8.93,-1.151 8.92,-0.941 13.4,-0.926 13.39,-0.59 13.39,-0.332 0,0"
         clip-path="url(#pf7a96be8cb)" />
    </g>
    <g
       style="stroke-linecap:butt;stroke-linejoin:round"
       id="line2d_21">
      <path
         inkscape:connector-curvature="0"
         id="path77"
         style="opacity:0.06825526;fill:none;stroke:#0043de;stroke-width:0.7427057;stroke-linecap:square;stroke-linejoin:round"
         d="m 216,523.563 17.856,-0.024 13.392,0.336 40.176,1.588 17.856,0.907 8.928,0.253 8.928,-0.052 8.928,-0.368 8.928,-0.795 8.928,-1.402 4.464,-0.963 8.928,-2.409 8.928,-3.16 4.464,-1.893 4.464,-2.106 4.464,-2.248 8.928,-5.297 8.928,-6.228 8.928,-7.182 8.928,-8.06 8.928,-8.863 26.784,-27.789 8.928,-8.905 8.928,-8.65 13.392,-12.595 8.928,-8.067 8.928,-7.307 4.464,-3.226 4.464,-2.882 4.464,-2.724 8.928,-4.336 4.464,-1.946 8.928,-3.406 4.464,-1.509 4.464,-0.999 4.464,-1.222 4.464,-0.304 4.464,-0.622 4.464,0.053 4.464,-0.161 4.464,0.209 4.464,0.026 4.464,0.213 4.464,0.059 8.928,0.725 4.464,0.636 8.928,1.715 4.464,1.415 4.464,1.294 4.464,1.717 4.464,1.466 4.464,1.85 13.392,4.286 4.464,0.961 4.464,1.158 4.464,0.81 4.464,1.233 4.464,0.828 4.464,1.535 4.464,1.124 4.464,1.555 8.928,3.327 13.392,5.902 4.464,2.218 8.928,3.995 8.928,3.078 4.464,1.147 4.464,0.93 4.464,1.212 4.464,0.64 4.464,1.322 4.464,1.049 4.464,1.278 4.464,1.71 4.464,1.129 4.464,2.015 4.464,0.973 4.464,2.062 4.464,0.915 4.464,1.594 4.464,0.75 4.464,1.022 13.392,1.349 4.464,0.183 4.464,0.402 8.928,1.106 4.464,1.25 4.464,1.062 22.32,8.531 8.928,2.98 4.464,1.3 4.464,1.777 4.464,1.583 8.928,4.458 4.464,2.483 4.464,2.692 4.464,2.072 4.464,2.414 8.928,3.455 4.464,1.854 4.464,1.526 4.464,2.114 4.464,1.825 4.464,2.096 8.928,3.463 8.928,2.329 4.464,0.654 4.464,0.803 4.464,0.555 13.392,2.031 4.464,0.925 4.464,0.648 13.39,2.805 13.39,4.052 4.47,1.801 4.46,1.42 13.39,5.786 4.47,2.201 22.32,11.625 8.93,4.468 4.46,2.296 8.93,5.127 13.39,8.179 4.46,2.436 4.47,2.202 4.46,2.016 4.47,1.654 4.46,1.448 4.46,1.23 4.47,0.948 4.46,0.807 8.93,0.991 8.93,0.29 4.46,-0.082 4.47,-0.219 4.46,-0.408 4.46,-0.565 4.47,-0.806 4.46,-0.958 4.47,-1.171 4.46,-1.325 8.93,-3.051 8.93,-3.459 4.46,-1.776 17.86,-7.87 13.39,-6.066 13.39,-5.765 8.93,-3.566 8.93,-3.211 8.92,-2.828 8.93,-2.501 8.93,-2.257 8.93,-1.995 8.93,-1.642 8.92,-1.257 13.4,-1.318 4.46,-0.351 0,0"
         clip-path="url(#pf7a96be8cb)" />
    </g>
    <g
       style="stroke-linecap:butt;stroke-linejoin:round"
       id="line2d_22">
      <path
         inkscape:connector-curvature="0"
         id="path80"
         style="opacity:0.06006464;fill:none;stroke:#004ada;stroke-width:0.7427057;stroke-linecap:square;stroke-linejoin:round"
         d="m 216,510.988 13.392,-0.734 8.928,-0.265 13.392,-0.086 17.856,0.21 8.928,0.293 8.928,0.485 17.856,1.174 4.464,0.266 13.392,0.103 4.464,-0.024 17.856,-0.75 4.464,-0.206 8.928,-0.772 4.464,-0.545 4.464,-0.703 4.464,-0.924 4.464,-1.051 4.464,-1.385 4.464,-1.501 4.464,-1.71 8.928,-3.809 8.928,-4.241 8.928,-4.669 4.464,-2.563 4.464,-2.722 4.464,-2.886 8.928,-6.142 4.464,-3.258 4.464,-2.996 4.464,-3.299 4.464,-2.809 4.464,-3.035 4.464,-2.719 8.928,-4.994 8.928,-3.998 8.928,-2.881 8.928,-1.624 4.464,-0.239 4.464,0.126 4.464,0.45 4.464,1.3 4.464,1.464 8.928,5.013 4.464,3.388 4.464,3.613 4.464,3.976 8.928,9.106 4.464,5.149 4.464,5.405 4.464,5.625 31.248,41.535 13.392,17.118 4.464,5.225 4.464,5.408 8.928,8.916 4.464,3.718 4.464,3.154 4.464,2.791 4.464,2.239 4.464,1.847 4.464,1.717 4.464,1.216 4.464,1.531 4.464,0.785 4.464,1.284 4.464,0.43 4.464,0.598 4.464,-0.324 4.464,-0.546 4.464,-1.3 4.464,-1.629 4.464,-2.205 8.928,-5.376 4.464,-3.174 4.464,-2.774 4.464,-3.012 8.928,-5.184 8.928,-4.402 4.464,-1.86 8.928,-4.691 4.464,-2.527 17.856,-12.492 4.464,-2.591 4.464,-2.749 13.392,-7.092 4.464,-2.599 4.464,-2.442 4.464,-2.788 13.392,-7.494 4.464,-2.138 4.464,-2.422 8.928,-4.191 4.464,-2.165 8.928,-3.286 4.464,-1.176 4.464,-0.821 4.464,-0.519 8.928,-0.623 4.464,-0.061 4.464,-0.286 8.928,0.057 4.464,0.335 4.464,0.563 4.464,0.785 8.928,2.257 8.928,3.283 4.464,2.052 4.464,2.228 8.928,5.447 8.928,6.231 4.464,2.847 4.464,3.171 4.464,2.386 4.464,2.705 13.392,6.201 4.464,1.861 4.46,1.65 4.47,1.517 4.46,1.317 4.47,0.95 4.46,0.7 4.46,0.094 4.47,-0.224 4.46,-0.878 4.47,-1.119 8.92,-3.274 4.47,-2.051 4.46,-1.699 4.47,-2.079 4.46,-1.758 8.93,-4.318 8.93,-5.606 8.92,-7.003 4.47,-3.956 13.39,-11.35 8.93,-6.917 8.93,-6.267 4.46,-2.898 8.93,-5.357 8.93,-4.618 8.92,-3.805 4.47,-1.653 4.46,-1.465 4.47,-1.299 4.46,-1.109 4.46,-0.956 8.93,-1.369 8.93,-0.631 4.46,-0.066 8.93,0.472 8.93,1.23 4.46,0.848 8.93,2.012 13.39,3.516 22.32,6.254 35.72,9.452 8.92,2.087 8.93,1.905 4.47,0.922 13.39,2.368 8.93,1.353 4.46,0.596 0,0"
         clip-path="url(#pf7a96be8cb)" />
    </g>
    <g
       style="stroke-linecap:butt;stroke-linejoin:round"
       id="line2d_23">
      <path
         inkscape:connector-curvature="0"
         id="path83"
         style="opacity:0.05285686;fill:none;stroke:#0044dd;stroke-width:0.7427057;stroke-linecap:square;stroke-linejoin:round"
         d="m 216,489.675 4.464,0.59 4.464,0.518 13.392,1.519 35.712,3.961 31.248,3.618 8.928,1.369 31.248,5.148 8.928,1.528 17.856,3.213 17.856,2.388 8.928,1.151 8.928,1.397 13.392,2.211 8.928,1.128 8.928,0.805 4.464,0.257 4.464,0.404 4.464,0.137 4.464,0.525 4.464,0.182 4.464,0.547 4.464,0.373 4.464,0.547 4.464,0.71 4.464,0.578 4.464,1.031 4.464,0.746 4.464,1.198 4.464,0.876 4.464,1.094 4.464,0.952 8.928,1.583 8.928,0.958 4.464,0.402 13.392,0.828 8.928,0.738 4.464,0.59 4.464,0.417 4.464,0.667 8.928,0.939 8.928,0.323 4.464,-0.182 4.464,-0.318 4.464,-0.458 4.464,-0.844 4.464,-0.634 4.464,-0.906 4.464,-0.523 8.928,-0.476 4.464,0.661 4.464,0.404 4.464,1.233 4.464,0.85 4.464,1.211 8.928,1.503 4.464,0.686 4.464,0.457 8.928,1.601 4.464,1.248 4.464,1.112 4.464,1.591 4.464,0.976 4.464,1.457 4.464,0.299 4.464,0.972 4.464,-0.498 4.464,0.369 4.464,-0.724 4.464,-0.197 4.464,-0.856 4.464,-0.523 8.928,-2.394 4.464,-1.624 8.928,-4.511 8.928,-6.145 13.392,-10.814 4.464,-3.807 4.464,-3.454 4.464,-3.607 4.464,-3.401 4.464,-3.243 8.928,-6.054 4.464,-2.504 4.464,-2.642 4.464,-2.173 8.928,-3.545 4.464,-1.075 4.464,-0.911 4.464,-0.699 4.464,0.005 4.464,-0.332 4.464,0.609 4.464,0.222 4.464,1.244 4.464,1.046 4.464,2.144 4.464,2.269 4.464,3.099 4.464,3.628 4.464,3.912 13.392,13.467 4.464,4.894 4.464,4.047 4.464,4.909 4.464,3.933 4.464,4.639 8.928,8.596 4.464,4.637 4.464,4.315 4.464,4.742 4.464,4.412 4.464,4.612 8.928,8.54 4.464,4.048 8.928,7.148 4.464,2.885 4.464,2.726 4.464,2.42 4.46,1.834 4.47,2.013 4.46,1.201 4.47,1.52 8.92,1.591 4.47,0.404 4.46,0.1 4.47,-0.063 4.46,-0.502 4.46,-0.643 4.47,-0.9 8.93,-2.314 4.46,-1.396 4.46,-1.552 4.47,-1.403 4.46,-1.816 4.47,-1.635 8.92,-3.78 4.47,-1.88 4.46,-2.059 8.93,-3.904 8.93,-3.41 8.93,-2.69 22.32,-4.718 4.46,-0.668 4.46,-1.01 35.72,-5.697 22.32,-4.949 13.39,-3.42 8.93,-2.725 8.92,-3.148 13.4,-5.071 13.39,-4.745 8.93,-2.971 8.92,-2.854 13.4,-4.009 8.92,-2.479 8.93,-2.269 8.93,-2.032 8.93,-1.779 8.93,-1.565 4.46,-0.698 0,0"
         clip-path="url(#pf7a96be8cb)" />
    </g>
    <g
       style="stroke-linecap:butt;stroke-linejoin:round"
       id="line2d_24">
      <path
         inkscape:connector-curvature="0"
         id="path86"
         style="opacity:0.04651405;fill:none;stroke:#0052d6;stroke-width:0.7427057;stroke-linecap:square;stroke-linejoin:round"
         d="m 216,518.763 4.464,-0.646 4.464,-0.584 8.928,-1.084 8.928,-0.941 8.928,-0.785 8.928,-0.552 4.464,-0.176 8.928,-0.008 4.464,0.163 8.928,0.695 4.464,0.571 4.464,0.695 4.464,0.904 4.464,1.073 4.464,1.338 4.464,1.524 4.464,1.783 4.464,2.047 4.464,2.234 4.464,2.547 4.464,2.721 4.464,3.043 4.464,3.31 4.464,3.604 4.464,3.923 4.464,4.206 4.464,4.489 4.464,4.712 8.928,9.99 8.928,10.552 13.392,16.546 17.856,22.356 8.928,10.634 8.928,9.816 4.464,4.459 4.464,4.172 4.464,3.772 4.464,3.461 4.464,3.076 4.464,2.704 4.464,2.372 4.464,1.872 4.464,1.532 4.464,0.824 4.464,0.398 4.464,-0.568 4.464,-0.905 4.464,-1.929 4.464,-2.154 4.464,-2.972 4.464,-3.255 4.464,-3.686 4.464,-4.16 4.464,-4.34 4.464,-4.92 4.464,-5.264 4.464,-5.515 8.928,-12.438 8.928,-14.003 8.928,-15.238 8.928,-16.019 4.464,-8.441 4.464,-8.112 8.928,-16.856 4.464,-8.028 4.464,-8.522 4.464,-7.739 4.464,-8.213 4.464,-7.42 4.464,-7.792 4.464,-7.075 4.464,-7.301 8.928,-13.757 8.928,-13.12 4.464,-5.817 4.464,-6.028 4.464,-4.61 4.464,-5.067 8.928,-7.638 4.464,-3.366 4.464,-2.816 4.464,-2.962 8.928,-4.305 4.464,-1.658 4.464,-1.497 8.928,-2.251 4.464,-0.844 4.464,-1.064 4.464,-0.889 4.464,-0.763 4.464,-0.635 4.464,-0.255 4.464,0.179 4.464,0.313 4.464,1.003 4.464,0.788 8.928,2.388 4.464,0.942 4.464,1.43 4.464,0.854 4.464,1.494 4.464,1.321 4.464,1.858 4.464,2.037 8.928,5.16 4.464,3.169 4.464,2.831 4.464,3.199 17.856,11.934 4.464,3.132 8.928,7.394 4.464,4.296 4.464,4.13 4.464,4.352 4.464,4.18 4.464,3.814 4.464,3.642 4.464,3.232 4.464,3.063 8.928,5.199 4.464,2.191 4.464,1.891 4.464,2.145 4.464,1.35 4.464,1.784 4.464,1.45 4.464,1.165 4.464,1.588 4.464,0.872 4.464,1.46 4.464,0.714 4.464,1.04 4.464,0.691 8.928,1.145 4.464,0.137 4.464,0.337 4.464,-0.295 4.464,-0.128 13.392,-1.489 8.924,-0.731 13.4,-0.251 4.46,-0.1 8.93,-0.758 49.1,-5.899 8.93,-0.381 17.86,0.133 4.46,-0.285 4.46,0.012 4.47,-0.225 8.93,0.132 4.46,0.152 4.46,0.434 4.47,0.265 8.93,0.764 35.71,2.221 22.32,1.42 13.39,0.333 13.39,0.171 8.93,0.39 4.46,0.255 13.4,1.209 8.92,0.783 13.4,1.11 13.39,1.141 13.39,0.932 17.86,1.102 22.32,1.756 4.46,0.335 0,0"
         clip-path="url(#pf7a96be8cb)" />
    </g>
    <g
       style="stroke-linecap:butt;stroke-linejoin:round"
       id="line2d_25">
      <path
         inkscape:connector-curvature="0"
         id="path89"
         style="opacity:0.04093239;fill:none;stroke:#0085bc;stroke-width:0.7427057;stroke-linecap:square;stroke-linejoin:round"
         d="m 216,508.001 4.464,0.28 4.464,0.219 13.392,0.445 31.248,0.442 8.928,-0.162 8.928,-0.471 8.928,-0.853 8.928,-1.292 4.464,-0.853 4.464,-0.969 4.464,-1.178 4.464,-1.345 4.464,-1.54 4.464,-1.763 4.464,-1.948 4.464,-2.165 4.464,-2.368 4.464,-2.573 4.464,-2.788 4.464,-2.982 4.464,-3.184 8.928,-7.015 8.928,-7.924 8.928,-8.824 4.464,-4.684 8.928,-9.938 8.928,-10.488 8.928,-10.748 13.392,-16.506 4.464,-5.538 13.392,-17.59 22.32,-30.073 31.248,-40.529 8.928,-11.18 4.464,-5.534 4.464,-4.998 4.464,-5.389 4.464,-4.565 4.464,-5.012 8.928,-8.752 4.464,-3.961 4.464,-3.619 4.464,-3.26 4.464,-2.634 4.464,-2.09 4.464,-1.559 4.464,-0.488 4.464,-0.241 4.464,0.965 4.464,1.364 4.464,2.241 4.464,2.907 4.464,3.389 4.464,4.285 4.464,4.547 4.464,5.636 4.464,5.829 4.464,6.822 4.464,7.065 8.928,15.665 4.464,8.651 4.464,8.354 8.928,18.136 4.464,9.508 4.464,9.856 4.464,10.2 17.856,42.046 4.464,10.346 8.928,19.531 4.464,9.203 4.464,8.92 4.464,8.528 4.464,8.121 8.928,14.774 8.928,13.001 4.464,5.91 4.464,5.64 4.464,5.412 4.464,4.825 4.464,4.584 4.464,3.882 4.464,3.276 4.464,2.614 4.464,1.999 4.464,1.229 4.464,0.966 4.464,0.142 4.464,-0.224 4.464,-0.64 4.464,-1.054 8.928,-3.037 4.464,-2.281 4.464,-1.878 4.464,-2.83 4.464,-2.172 4.464,-3.113 4.464,-2.552 8.928,-6.052 8.928,-6.113 4.464,-3.14 4.464,-2.964 4.464,-3.367 4.464,-2.801 4.464,-3.291 8.928,-5.179 4.464,-2.275 8.928,-2.824 8.928,-0.719 4.464,0.357 4.464,0.715 4.464,0.975 4.464,1.358 4.464,1.556 4.464,2.047 4.464,2.182 8.928,5.363 8.928,6.482 8.928,7.374 13.392,11.809 4.464,3.954 8.928,7.583 8.93,7.123 8.93,6.271 4.46,2.475 4.46,2.267 4.47,1.473 4.46,1.035 4.47,0.428 4.46,-0.058 4.46,-0.459 4.47,-0.63 8.93,-2.023 8.92,-2.958 8.93,-4.38 4.47,-2.884 4.46,-3.021 8.93,-7.02 4.46,-4.009 4.47,-3.822 17.85,-16.589 8.93,-7.904 4.46,-3.729 4.47,-3.495 4.46,-3.34 4.47,-3.096 8.92,-5.651 4.47,-2.479 4.46,-2.321 4.47,-2.179 4.46,-1.776 4.46,-1.626 4.47,-1.275 4.46,-0.896 4.47,-0.661 4.46,-0.297 4.46,-0.011 4.47,0.237 4.46,0.472 8.93,1.481 8.93,2.193 8.93,2.771 8.92,3.194 26.79,9.811 17.85,6.043 8.93,2.713 8.93,2.368 8.93,2.027 8.93,1.748 13.39,2.247 8.93,1.34 4.46,0.651 0,0"
         clip-path="url(#pf7a96be8cb)" />
    </g>
  </g>
  <defs
     id="defs439">
    <clipPath
       id="pf7a96be8cb">
      <rect
         height="733.67999"
         width="1339.2"
         x="216"
         y="91.709999"
         id="rect442"
         style="stroke-linecap:butt;stroke-linejoin:round" />
    </clipPath>
  </defs>
</svg>
