<?xml version="1.0" encoding="UTF-8" standalone="no"?>
<!-- Created with Inkscape (http://www.inkscape.org/) -->

<svg
   xmlns:dc="http://purl.org/dc/elements/1.1/"
   xmlns:cc="http://creativecommons.org/ns#"
   xmlns:rdf="http://www.w3.org/1999/02/22-rdf-syntax-ns#"
   xmlns:svg="http://www.w3.org/2000/svg"
   xmlns="http://www.w3.org/2000/svg"
   xmlns:sodipodi="http://sodipodi.sourceforge.net/DTD/sodipodi-0.dtd"
   xmlns:inkscape="http://www.inkscape.org/namespaces/inkscape"
   id="svg2"
   version="1.1"
   inkscape:version="0.48.4 r9939"
   width="551.25"
   height="155.85"
   xml:space="preserve"
   sodipodi:docname="vimeo_logo_dark.eps"><metadata
     id="metadata8"><rdf:RDF><cc:Work
         rdf:about=""><dc:format>image/svg+xml</dc:format><dc:type
           rdf:resource="http://purl.org/dc/dcmitype/StillImage" /><dc:title></dc:title></cc:Work></rdf:RDF></metadata><defs
     id="defs6" /><sodipodi:namedview
     pagecolor="#ffffff"
     bordercolor="#666666"
     borderopacity="1"
     objecttolerance="10"
     gridtolerance="10"
     guidetolerance="10"
     inkscape:pageopacity="0"
     inkscape:pageshadow="2"
     inkscape:window-width="640"
     inkscape:window-height="480"
     id="namedview4"
     showgrid="false"
     inkscape:zoom="0.65487528"
     inkscape:cx="275.625"
     inkscape:cy="77.925003"
     inkscape:window-x="65"
     inkscape:window-y="24"
     inkscape:window-maximized="0"
     inkscape:current-layer="g10" /><g
     id="g10"
     inkscape:groupmode="layer"
     inkscape:label="ink_ext_XXXXXX"
     transform="matrix(1.25,0,0,-1.25,0,155.85)"><g
       id="g12"
       transform="scale(0.1,0.1)"><path
         d="M 985.855,660.176 C 981.449,564.125 914.398,432.609 784.695,265.688 650.59,91.3281 537.133,4.14063 444.32,4.14063 c -57.472,0 -106.144,53.07817 -145.882,159.28937 -26.54,97.343 -53.079,194.687 -79.61,292.023 -29.515,106.152 -61.164,159.285 -95.015,159.285 -7.375,0 -33.2036,-15.535 -77.4067,-46.472 L 0,628.07 c 48.6719,42.782 96.6953,85.567 143.945,128.414 64.91,56.114 113.653,85.625 146.145,88.602 76.758,7.379 124.008,-45.113 141.742,-157.469 19.152,-121.226 32.422,-196.629 39.867,-226.14 22.133,-100.575 46.469,-150.809 73.071,-150.809 20.644,0 51.648,32.629 93.007,97.859 41.289,65.246 63.43,114.883 66.403,148.996 5.894,56.309 -16.246,84.532 -66.403,84.532 -23.629,0 -47.964,-5.442 -73.007,-16.184 48.476,158.828 141.093,235.977 277.789,231.578 101.351,-2.976 149.121,-68.734 143.296,-197.273"
         style="fill:#1a1f1e;fill-opacity:1;fill-rule:nonzero;stroke:none"
         id="path14" /><path
         d="m 1401.95,1136.66 c -1.48,-36.76 -19.93,-72.03 -55.4,-105.82 -39.87,-38.184 -87.12,-57.281 -141.74,-57.281 -84.14,0 -124.79,36.701 -121.81,110.161 1.42,38.18 23.95,74.94 67.51,110.22 43.56,35.21 91.9,52.88 145.11,52.88 31,0 56.82,-12.17 77.53,-36.38 20.65,-24.26 30.23,-48.86 28.8,-73.78 z M 1594.63,349.055 C 1553.28,270.871 1496.45,200.059 1424.09,136.629 1325.13,51.0703 1226.24,8.28125 1127.34,8.28125 c -45.83,0 -80.9,14.75785 -105.24,44.27735 -24.334,29.5117 -35.791,67.8204 -34.303,115.0824 1.422,48.66 16.573,123.933 45.363,225.75 28.81,101.808 43.24,156.425 43.24,163.808 0,38.321 -13.33,57.539 -39.87,57.539 -8.86,0 -33.98,-15.535 -75.335,-46.472 l -50.937,59.804 c 47.246,42.782 94.492,85.567 141.742,128.414 63.49,56.114 110.74,85.625 141.81,88.602 48.67,4.398 84.46,-9.902 107.37,-43.039 22.85,-33.137 31.33,-76.117 25.5,-129.059 -19.22,-89.773 -39.93,-203.746 -62.07,-341.988 -1.48,-63.301 21.43,-94.879 68.68,-94.879 20.64,0 57.53,21.805 110.73,65.555 44.28,36.375 80.45,70.613 108.54,102.711 l 42.07,-55.332"
         style="fill:#1a1f1e;fill-opacity:1;fill-rule:nonzero;stroke:none"
         id="path16" /><path
         d="M 2977.72,349.055 C 2936.37,270.871 2879.54,200.059 2807.18,136.629 2708.22,51.0703 2609.32,8.28125 2510.43,8.28125 c -96.05,0 -142.52,53.07815 -139.55,159.35975 1.42,47.25 10.68,104.004 27.64,170.41 16.96,66.406 26.22,118.054 27.7,154.941 1.49,56.055 -15.54,84.141 -51.13,84.141 -38.51,0 -84.4,-45.82 -137.73,-137.332 -56.31,-95.988 -86.73,-188.996 -91.13,-279.02 -2.97,-63.5622 3.24,-112.3005 18.64,-146.2224 -103.03,-2.9688 -175.21,14.0508 -216.37,50.9414 -36.89,32.4883 -53.79,86.34 -50.81,161.68 1.42,47.246 8.67,94.496 21.74,141.742 13.02,47.242 20.26,89.312 21.75,126.277 2.98,54.617 -17.02,81.934 -59.87,81.934 -37.02,0 -76.95,-42.129 -119.8,-126.27 -42.84,-84.14 -66.53,-172.031 -70.93,-263.554 -2.98,-82.719 2.33,-140.2582 15.86,-172.7504 -101.36,-2.9688 -173.33,18.3906 -215.92,64.0898 -35.34,38.2426 -51.45,96.3636 -48.48,174.4216 1.43,38.25 8.16,91.649 20.32,160.125 12.17,68.481 18.97,121.809 20.39,160.118 2.91,26.476 -3.75,39.746 -19.93,39.746 -8.87,0 -33.98,-14.95 -75.34,-44.793 l -53.13,59.804 c 7.37,5.825 53.84,48.672 139.54,128.414 62,57.532 104.07,87.051 126.2,88.539 38.39,2.973 69.39,-12.882 93.01,-47.574 23.62,-34.691 35.47,-74.945 35.47,-120.707 0,-14.758 -1.49,-28.801 -4.4,-42.07 22.13,33.918 47.96,63.496 77.53,88.609 67.9,59.024 143.95,92.293 228.09,99.672 72.36,5.887 124.01,-11.07 155.08,-50.937 25.05,-32.493 36.83,-79.028 35.4,-139.543 10.36,8.8 21.43,18.445 33.27,28.8 33.92,39.868 67.12,71.582 99.61,95.211 54.62,39.868 111.52,62 170.54,66.469 70.87,5.887 121.81,-11.008 152.81,-50.742 26.54,-32.363 38.38,-78.707 35.47,-138.961 -1.49,-41.227 -11.45,-101.168 -29.9,-179.867 -18.52,-78.703 -27.7,-123.875 -27.7,-135.656 -1.49,-30.938 1.49,-52.235 8.86,-64.012 7.39,-11.774 25.05,-17.594 53.15,-17.594 20.64,0 57.53,21.805 110.73,65.555 44.28,36.375 80.45,70.613 108.54,102.711 l 42.07,-55.332"
         style="fill:#1a1f1e;fill-opacity:1;fill-rule:nonzero;stroke:none"
         id="path18" /><path
         d="m 3305.48,582.57 c 1.42,39.61 -14.76,59.485 -48.67,59.485 -44.27,0 -89.19,-30.489 -134.89,-91.457 -45.69,-60.965 -69.31,-119.344 -70.74,-175.133 -0.84,0 -0.84,-9.582 0,-28.676 72.23,26.406 134.88,66.789 187.96,121.164 42.72,46.981 64.84,85.235 66.34,114.617 z M 3808.24,351.32 C 3765.39,280.512 3681.26,209.77 3555.76,139.031 3399.26,49.0703 3240.5,4.14063 3079.6,4.14063 c -119.61,0 -205.3,39.87887 -256.95,119.55037 -36.9,54.618 -54.63,119.547 -53.14,194.875 1.43,119.543 54.63,233.196 159.47,341.028 115.15,118.051 251,177.144 407.5,177.144 144.72,0 221.48,-58.961 230.35,-176.758 5.88,-75.074 -35.47,-152.417 -124.01,-231.968 -94.56,-86.922 -213.45,-142.129 -356.62,-165.684 26.53,-36.828 66.4,-55.219 119.6,-55.219 106.28,0 222.2,27 347.75,81.106 90.03,37.988 160.91,77.473 212.62,118.379 l 42.07,-55.274"
         style="fill:#1a1f1e;fill-opacity:1;fill-rule:nonzero;stroke:none"
         id="path20" /><path
         d="m 4159.18,508.137 c 1.49,39.933 -4.07,76.574 -16.63,109.84 -12.56,33.265 -30.67,49.964 -54.24,49.964 -75.33,0 -137.34,-40.711 -186.01,-122.07 -41.42,-66.601 -63.56,-137.598 -66.47,-212.996 -1.48,-37.023 5.18,-69.578 19.93,-97.664 16.18,-32.563 39.09,-48.801 68.67,-48.801 66.41,0 123.3,39.149 170.55,117.598 39.86,65.105 61.23,133.133 64.2,204.129 z m 250.28,-8.348 C 4403.52,364.133 4353.35,246.918 4258.86,148.16 4164.37,49.3906 4046.95,0 3906.7,0 c -116.63,0 -205.24,37.6094 -265.75,112.82 -44.27,55.981 -68.67,126.008 -73.07,210.016 -7.44,126.797 38.31,243.301 137.33,349.441 106.28,117.926 239.87,176.887 400.83,176.887 103.31,0 181.56,-34.691 234.75,-103.945 50.23,-63.43 73.08,-145.235 68.67,-245.43"
         style="fill:#1a1f1e;fill-opacity:1;fill-rule:nonzero;stroke:none"
         id="path22" /></g></g></svg>